<svg width="1373" height="508" fill="none" xmlns="http://www.w3.org/2000/svg"><g opacity=".3" fill="#000"><path d="M4 0h1v146.181l-4 6V374l4 6v90H4v-90l-4-6V151.819l4-6V0zM1268 40h1v146.181l-4 6V464l4 6v30h-1v-30l-4-6V191.819l4-6V40zM1286 363h3v3h-3v-3zM1293 363h3v3h-3v-3zM1300 363h3v3h-3v-3zM1307 363h3v3h-3v-3zM1314 363h3v3h-3v-3zM1321 363h3v3h-3v-3zM1328 363h3v3h-3v-3zM1335 363h3v3h-3v-3zM1342 363h3v3h-3v-3zM1349 363h3v3h-3v-3zM1356 363h3v3h-3v-3zM1363 363h3v3h-3v-3zM1370 363h3v3h-3v-3zM1286 370h3v3h-3v-3zM1293 370h3v3h-3v-3zM1300 370h3v3h-3v-3zM1307 370h3v3h-3v-3zM1314 370h3v3h-3v-3zM1321 370h3v3h-3v-3zM1328 370h3v3h-3v-3zM1335 370h3v3h-3v-3zM1342 370h3v3h-3v-3zM1349 370h3v3h-3v-3zM1356 370h3v3h-3v-3zM1363 370h3v3h-3v-3zM1370 370h3v3h-3v-3zM1286 377h3v3h-3v-3zM1293 377h3v3h-3v-3zM1300 377h3v3h-3v-3zM1307 377h3v3h-3v-3zM1314 377h3v3h-3v-3zM1321 377h3v3h-3v-3zM1328 377h3v3h-3v-3zM1335 377h3v3h-3v-3zM1342 377h3v3h-3v-3zM1349 377h3v3h-3v-3zM1356 377h3v3h-3v-3zM1363 377h3v3h-3v-3zM1370 377h3v3h-3v-3zM1286 384h3v3h-3v-3zM1293 384h3v3h-3v-3zM1300 384h3v3h-3v-3zM1307 384h3v3h-3v-3zM1314 384h3v3h-3v-3zM1321 384h3v3h-3v-3zM1328 384h3v3h-3v-3zM1335 384h3v3h-3v-3zM1342 384h3v3h-3v-3zM1349 384h3v3h-3v-3zM1356 384h3v3h-3v-3zM1363 384h3v3h-3v-3zM1370 384h3v3h-3v-3zM1286 391h3v3h-3v-3zM1293 391h3v3h-3v-3zM1300 391h3v3h-3v-3zM1307 391h3v3h-3v-3zM1314 391h3v3h-3v-3zM1321 391h3v3h-3v-3zM1328 391h3v3h-3v-3zM1335 391h3v3h-3v-3zM1342 391h3v3h-3v-3zM1349 391h3v3h-3v-3zM1356 391h3v3h-3v-3zM1363 391h3v3h-3v-3zM1370 391h3v3h-3v-3zM1286 398h3v3h-3v-3zM1293 398h3v3h-3v-3zM1300 398h3v3h-3v-3zM1307 398h3v3h-3v-3zM1314 398h3v3h-3v-3zM1321 398h3v3h-3v-3zM1328 398h3v3h-3v-3zM1335 398h3v3h-3v-3zM1342 398h3v3h-3v-3zM1349 398h3v3h-3v-3zM1356 398h3v3h-3v-3zM1363 398h3v3h-3v-3zM1370 398h3v3h-3v-3zM1286 405h3v3h-3v-3zM1293 405h3v3h-3v-3zM1300 405h3v3h-3v-3zM1307 405h3v3h-3v-3zM1314 405h3v3h-3v-3zM1321 405h3v3h-3v-3zM1328 405h3v3h-3v-3zM1335 405h3v3h-3v-3zM1342 405h3v3h-3v-3zM1349 405h3v3h-3v-3zM1356 405h3v3h-3v-3zM1363 405h3v3h-3v-3zM1370 405h3v3h-3v-3zM1286 412h3v3h-3v-3zM1293 412h3v3h-3v-3zM1300 412h3v3h-3v-3zM1307 412h3v3h-3v-3zM1314 412h3v3h-3v-3zM1321 412h3v3h-3v-3zM1328 412h3v3h-3v-3zM1335 412h3v3h-3v-3zM1342 412h3v3h-3v-3zM1349 412h3v3h-3v-3zM1356 412h3v3h-3v-3zM1363 412h3v3h-3v-3zM1370 412h3v3h-3v-3zM1286 419h3v3h-3v-3zM1293 419h3v3h-3v-3zM1300 419h3v3h-3v-3zM1307 419h3v3h-3v-3zM1314 419h3v3h-3v-3zM1321 419h3v3h-3v-3zM1328 419h3v3h-3v-3zM1335 419h3v3h-3v-3zM1342 419h3v3h-3v-3zM1349 419h3v3h-3v-3zM1356 419h3v3h-3v-3zM1363 419h3v3h-3v-3zM1370 419h3v3h-3v-3zM1286 426h3v3h-3v-3zM1293 426h3v3h-3v-3zM1300 426h3v3h-3v-3zM1307 426h3v3h-3v-3zM1314 426h3v3h-3v-3zM1321 426h3v3h-3v-3zM1328 426h3v3h-3v-3zM1335 426h3v3h-3v-3zM1342 426h3v3h-3v-3zM1349 426h3v3h-3v-3zM1356 426h3v3h-3v-3zM1363 426h3v3h-3v-3zM1370 426h3v3h-3v-3zM1286 433h3v3h-3v-3zM1293 433h3v3h-3v-3zM1300 433h3v3h-3v-3zM1307 433h3v3h-3v-3zM1314 433h3v3h-3v-3zM1321 433h3v3h-3v-3zM1328 433h3v3h-3v-3zM1335 433h3v3h-3v-3zM1342 433h3v3h-3v-3zM1349 433h3v3h-3v-3zM1356 433h3v3h-3v-3zM1363 433h3v3h-3v-3zM1370 433h3v3h-3v-3zM1286 286h3v3h-3v-3zM1293 286h3v3h-3v-3zM1300 286h3v3h-3v-3zM1307 286h3v3h-3v-3zM1314 286h3v3h-3v-3zM1321 286h3v3h-3v-3zM1328 286h3v3h-3v-3zM1335 286h3v3h-3v-3zM1342 286h3v3h-3v-3zM1349 286h3v3h-3v-3zM1356 286h3v3h-3v-3zM1363 286h3v3h-3v-3zM1370 286h3v3h-3v-3zM1286 293h3v3h-3v-3zM1293 293h3v3h-3v-3zM1300 293h3v3h-3v-3zM1307 293h3v3h-3v-3zM1314 293h3v3h-3v-3zM1321 293h3v3h-3v-3zM1328 293h3v3h-3v-3zM1335 293h3v3h-3v-3zM1342 293h3v3h-3v-3zM1349 293h3v3h-3v-3zM1356 293h3v3h-3v-3zM1363 293h3v3h-3v-3zM1370 293h3v3h-3v-3zM1286 300h3v3h-3v-3zM1293 300h3v3h-3v-3zM1300 300h3v3h-3v-3zM1307 300h3v3h-3v-3zM1314 300h3v3h-3v-3zM1321 300h3v3h-3v-3zM1328 300h3v3h-3v-3zM1335 300h3v3h-3v-3zM1342 300h3v3h-3v-3zM1349 300h3v3h-3v-3zM1356 300h3v3h-3v-3zM1363 300h3v3h-3v-3zM1370 300h3v3h-3v-3zM1286 307h3v3h-3v-3zM1293 307h3v3h-3v-3zM1300 307h3v3h-3v-3zM1307 307h3v3h-3v-3zM1314 307h3v3h-3v-3zM1321 307h3v3h-3v-3zM1328 307h3v3h-3v-3zM1335 307h3v3h-3v-3zM1342 307h3v3h-3v-3zM1349 307h3v3h-3v-3zM1356 307h3v3h-3v-3zM1363 307h3v3h-3v-3zM1370 307h3v3h-3v-3zM1286 314h3v3h-3v-3zM1293 314h3v3h-3v-3zM1300 314h3v3h-3v-3zM1307 314h3v3h-3v-3zM1314 314h3v3h-3v-3zM1321 314h3v3h-3v-3zM1328 314h3v3h-3v-3zM1335 314h3v3h-3v-3zM1342 314h3v3h-3v-3zM1349 314h3v3h-3v-3zM1356 314h3v3h-3v-3zM1363 314h3v3h-3v-3zM1370 314h3v3h-3v-3zM1286 321h3v3h-3v-3zM1293 321h3v3h-3v-3zM1300 321h3v3h-3v-3zM1307 321h3v3h-3v-3zM1314 321h3v3h-3v-3zM1321 321h3v3h-3v-3zM1328 321h3v3h-3v-3zM1335 321h3v3h-3v-3zM1342 321h3v3h-3v-3zM1349 321h3v3h-3v-3zM1356 321h3v3h-3v-3zM1363 321h3v3h-3v-3zM1370 321h3v3h-3v-3zM1286 328h3v3h-3v-3zM1293 328h3v3h-3v-3zM1300 328h3v3h-3v-3zM1307 328h3v3h-3v-3zM1314 328h3v3h-3v-3zM1321 328h3v3h-3v-3zM1328 328h3v3h-3v-3zM1335 328h3v3h-3v-3zM1342 328h3v3h-3v-3zM1349 328h3v3h-3v-3zM1356 328h3v3h-3v-3zM1363 328h3v3h-3v-3zM1370 328h3v3h-3v-3zM1286 335h3v3h-3v-3zM1293 335h3v3h-3v-3zM1300 335h3v3h-3v-3zM1307 335h3v3h-3v-3zM1314 335h3v3h-3v-3zM1321 335h3v3h-3v-3zM1328 335h3v3h-3v-3zM1335 335h3v3h-3v-3zM1342 335h3v3h-3v-3zM1349 335h3v3h-3v-3zM1356 335h3v3h-3v-3zM1363 335h3v3h-3v-3zM1370 335h3v3h-3v-3zM1286 342h3v3h-3v-3zM1293 342h3v3h-3v-3zM1300 342h3v3h-3v-3zM1307 342h3v3h-3v-3zM1314 342h3v3h-3v-3zM1321 342h3v3h-3v-3zM1328 342h3v3h-3v-3zM1335 342h3v3h-3v-3zM1342 342h3v3h-3v-3zM1349 342h3v3h-3v-3zM1356 342h3v3h-3v-3zM1363 342h3v3h-3v-3zM1370 342h3v3h-3v-3zM1286 349h3v3h-3v-3zM1293 349h3v3h-3v-3zM1300 349h3v3h-3v-3zM1307 349h3v3h-3v-3zM1314 349h3v3h-3v-3zM1321 349h3v3h-3v-3zM1328 349h3v3h-3v-3zM1335 349h3v3h-3v-3zM1342 349h3v3h-3v-3zM1349 349h3v3h-3v-3zM1356 349h3v3h-3v-3zM1363 349h3v3h-3v-3zM1370 349h3v3h-3v-3zM1286 356h3v3h-3v-3zM1293 356h3v3h-3v-3zM1300 356h3v3h-3v-3zM1307 356h3v3h-3v-3zM1314 356h3v3h-3v-3zM1321 356h3v3h-3v-3zM1328 356h3v3h-3v-3zM1335 356h3v3h-3v-3zM1342 356h3v3h-3v-3zM1349 356h3v3h-3v-3zM1356 356h3v3h-3v-3zM1363 356h3v3h-3v-3zM1370 356h3v3h-3v-3zM1286 199h3v3h-3v-3zM1293 199h3v3h-3v-3zM1300 199h3v3h-3v-3zM1307 199h3v3h-3v-3zM1314 199h3v3h-3v-3zM1321 199h3v3h-3v-3zM1328 199h3v3h-3v-3zM1335 199h3v3h-3v-3zM1342 199h3v3h-3v-3zM1349 199h3v3h-3v-3zM1356 199h3v3h-3v-3zM1363 199h3v3h-3v-3zM1370 199h3v3h-3v-3zM1286 206h3v3h-3v-3zM1293 206h3v3h-3v-3zM1300 206h3v3h-3v-3zM1307 206h3v3h-3v-3zM1314 206h3v3h-3v-3zM1321 206h3v3h-3v-3zM1328 206h3v3h-3v-3zM1335 206h3v3h-3v-3zM1342 206h3v3h-3v-3zM1349 206h3v3h-3v-3zM1356 206h3v3h-3v-3zM1363 206h3v3h-3v-3zM1370 206h3v3h-3v-3zM1286 213h3v3h-3v-3zM1293 213h3v3h-3v-3zM1300 213h3v3h-3v-3zM1307 213h3v3h-3v-3zM1314 213h3v3h-3v-3zM1321 213h3v3h-3v-3zM1328 213h3v3h-3v-3zM1335 213h3v3h-3v-3zM1342 213h3v3h-3v-3zM1349 213h3v3h-3v-3zM1356 213h3v3h-3v-3zM1363 213h3v3h-3v-3zM1370 213h3v3h-3v-3zM1286 220h3v3h-3v-3zM1293 220h3v3h-3v-3zM1300 220h3v3h-3v-3zM1307 220h3v3h-3v-3zM1314 220h3v3h-3v-3zM1321 220h3v3h-3v-3zM1328 220h3v3h-3v-3zM1335 220h3v3h-3v-3zM1342 220h3v3h-3v-3zM1349 220h3v3h-3v-3zM1356 220h3v3h-3v-3zM1363 220h3v3h-3v-3zM1370 220h3v3h-3v-3zM1286 227h3v3h-3v-3zM1293 227h3v3h-3v-3zM1300 227h3v3h-3v-3zM1307 227h3v3h-3v-3zM1314 227h3v3h-3v-3zM1321 227h3v3h-3v-3zM1328 227h3v3h-3v-3zM1335 227h3v3h-3v-3zM1342 227h3v3h-3v-3zM1349 227h3v3h-3v-3zM1356 227h3v3h-3v-3zM1363 227h3v3h-3v-3zM1370 227h3v3h-3v-3zM1286 234h3v3h-3v-3zM1293 234h3v3h-3v-3zM1300 234h3v3h-3v-3zM1307 234h3v3h-3v-3zM1314 234h3v3h-3v-3zM1321 234h3v3h-3v-3zM1328 234h3v3h-3v-3zM1335 234h3v3h-3v-3zM1342 234h3v3h-3v-3zM1349 234h3v3h-3v-3zM1356 234h3v3h-3v-3zM1363 234h3v3h-3v-3zM1370 234h3v3h-3v-3zM1286 241h3v3h-3v-3zM1293 241h3v3h-3v-3zM1300 241h3v3h-3v-3zM1307 241h3v3h-3v-3zM1314 241h3v3h-3v-3zM1321 241h3v3h-3v-3zM1328 241h3v3h-3v-3zM1335 241h3v3h-3v-3zM1342 241h3v3h-3v-3zM1349 241h3v3h-3v-3zM1356 241h3v3h-3v-3zM1363 241h3v3h-3v-3zM1370 241h3v3h-3v-3zM1286 248h3v3h-3v-3zM1293 248h3v3h-3v-3zM1300 248h3v3h-3v-3zM1307 248h3v3h-3v-3zM1314 248h3v3h-3v-3zM1321 248h3v3h-3v-3zM1328 248h3v3h-3v-3zM1335 248h3v3h-3v-3zM1342 248h3v3h-3v-3zM1349 248h3v3h-3v-3zM1356 248h3v3h-3v-3zM1363 248h3v3h-3v-3zM1370 248h3v3h-3v-3zM1286 255h3v3h-3v-3zM1293 255h3v3h-3v-3zM1300 255h3v3h-3v-3zM1307 255h3v3h-3v-3zM1314 255h3v3h-3v-3zM1321 255h3v3h-3v-3zM1328 255h3v3h-3v-3zM1335 255h3v3h-3v-3zM1342 255h3v3h-3v-3zM1349 255h3v3h-3v-3zM1356 255h3v3h-3v-3zM1363 255h3v3h-3v-3zM1370 255h3v3h-3v-3zM1286 272h3v3h-3v-3zM1293 272h3v3h-3v-3zM1300 272h3v3h-3v-3zM1307 272h3v3h-3v-3zM1314 272h3v3h-3v-3zM1321 272h3v3h-3v-3zM1328 272h3v3h-3v-3zM1335 272h3v3h-3v-3zM1342 272h3v3h-3v-3zM1349 272h3v3h-3v-3zM1356 272h3v3h-3v-3zM1363 272h3v3h-3v-3zM1370 272h3v3h-3v-3zM1286 279h3v3h-3v-3zM1293 279h3v3h-3v-3zM1300 279h3v3h-3v-3zM1307 279h3v3h-3v-3zM1314 279h3v3h-3v-3zM1321 279h3v3h-3v-3zM1328 279h3v3h-3v-3zM1335 279h3v3h-3v-3zM1342 279h3v3h-3v-3zM1349 279h3v3h-3v-3zM1356 279h3v3h-3v-3zM1363 279h3v3h-3v-3zM1370 279h3v3h-3v-3zM771 435h3v3h-3v-3zM778 435h3v3h-3v-3zM785 435h3v3h-3v-3zM792 435h3v3h-3v-3zM799 435h3v3h-3v-3zM806 435h3v3h-3v-3zM813 435h3v3h-3v-3zM820 435h3v3h-3v-3zM827 435h3v3h-3v-3zM834 435h3v3h-3v-3zM841 435h3v3h-3v-3zM848 435h3v3h-3v-3zM855 435h3v3h-3v-3zM771 442h3v3h-3v-3zM778 442h3v3h-3v-3zM785 442h3v3h-3v-3zM792 442h3v3h-3v-3zM799 442h3v3h-3v-3zM806 442h3v3h-3v-3zM813 442h3v3h-3v-3zM820 442h3v3h-3v-3zM827 442h3v3h-3v-3zM834 442h3v3h-3v-3zM841 442h3v3h-3v-3zM848 442h3v3h-3v-3zM855 442h3v3h-3v-3zM771 449h3v3h-3v-3zM778 449h3v3h-3v-3zM785 449h3v3h-3v-3zM792 449h3v3h-3v-3zM799 449h3v3h-3v-3zM806 449h3v3h-3v-3zM813 449h3v3h-3v-3zM820 449h3v3h-3v-3zM827 449h3v3h-3v-3zM834 449h3v3h-3v-3zM841 449h3v3h-3v-3zM848 449h3v3h-3v-3zM855 449h3v3h-3v-3zM771 456h3v3h-3v-3zM778 456h3v3h-3v-3zM785 456h3v3h-3v-3zM792 456h3v3h-3v-3zM799 456h3v3h-3v-3zM806 456h3v3h-3v-3zM813 456h3v3h-3v-3zM820 456h3v3h-3v-3zM827 456h3v3h-3v-3zM834 456h3v3h-3v-3zM841 456h3v3h-3v-3zM848 456h3v3h-3v-3zM855 456h3v3h-3v-3zM771 463h3v3h-3v-3zM778 463h3v3h-3v-3zM785 463h3v3h-3v-3zM792 463h3v3h-3v-3zM799 463h3v3h-3v-3zM806 463h3v3h-3v-3zM813 463h3v3h-3v-3zM820 463h3v3h-3v-3zM827 463h3v3h-3v-3zM834 463h3v3h-3v-3zM841 463h3v3h-3v-3zM848 463h3v3h-3v-3zM855 463h3v3h-3v-3zM771 470h3v3h-3v-3zM778 470h3v3h-3v-3zM785 470h3v3h-3v-3zM792 470h3v3h-3v-3zM799 470h3v3h-3v-3zM806 470h3v3h-3v-3zM813 470h3v3h-3v-3zM820 470h3v3h-3v-3zM827 470h3v3h-3v-3zM834 470h3v3h-3v-3zM841 470h3v3h-3v-3zM848 470h3v3h-3v-3zM855 470h3v3h-3v-3zM771 477h3v3h-3v-3zM778 477h3v3h-3v-3zM785 477h3v3h-3v-3zM792 477h3v3h-3v-3zM799 477h3v3h-3v-3zM806 477h3v3h-3v-3zM813 477h3v3h-3v-3zM820 477h3v3h-3v-3zM827 477h3v3h-3v-3zM834 477h3v3h-3v-3zM841 477h3v3h-3v-3zM848 477h3v3h-3v-3zM855 477h3v3h-3v-3zM771 484h3v3h-3v-3zM778 484h3v3h-3v-3zM785 484h3v3h-3v-3zM792 484h3v3h-3v-3zM799 484h3v3h-3v-3zM806 484h3v3h-3v-3zM813 484h3v3h-3v-3zM820 484h3v3h-3v-3zM827 484h3v3h-3v-3zM834 484h3v3h-3v-3zM841 484h3v3h-3v-3zM848 484h3v3h-3v-3zM855 484h3v3h-3v-3zM771 491h3v3h-3v-3zM778 491h3v3h-3v-3zM785 491h3v3h-3v-3zM792 491h3v3h-3v-3zM799 491h3v3h-3v-3zM806 491h3v3h-3v-3zM813 491h3v3h-3v-3zM820 491h3v3h-3v-3zM827 491h3v3h-3v-3zM834 491h3v3h-3v-3zM841 491h3v3h-3v-3zM848 491h3v3h-3v-3zM855 491h3v3h-3v-3zM771 498h3v3h-3v-3zM778 498h3v3h-3v-3zM785 498h3v3h-3v-3zM792 498h3v3h-3v-3zM799 498h3v3h-3v-3zM806 498h3v3h-3v-3zM813 498h3v3h-3v-3zM820 498h3v3h-3v-3zM827 498h3v3h-3v-3zM834 498h3v3h-3v-3zM841 498h3v3h-3v-3zM848 498h3v3h-3v-3zM855 498h3v3h-3v-3zM771 505h3v3h-3v-3zM778 505h3v3h-3v-3zM785 505h3v3h-3v-3zM792 505h3v3h-3v-3zM799 505h3v3h-3v-3zM806 505h3v3h-3v-3zM813 505h3v3h-3v-3zM820 505h3v3h-3v-3zM827 505h3v3h-3v-3zM834 505h3v3h-3v-3zM841 505h3v3h-3v-3zM848 505h3v3h-3v-3zM855 505h3v3h-3v-3zM771 358h3v3h-3v-3zM778 358h3v3h-3v-3zM785 358h3v3h-3v-3zM792 358h3v3h-3v-3zM799 358h3v3h-3v-3zM806 358h3v3h-3v-3zM813 358h3v3h-3v-3zM820 358h3v3h-3v-3zM827 358h3v3h-3v-3zM834 358h3v3h-3v-3zM841 358h3v3h-3v-3zM848 358h3v3h-3v-3zM855 358h3v3h-3v-3zM771 365h3v3h-3v-3zM778 365h3v3h-3v-3zM785 365h3v3h-3v-3zM792 365h3v3h-3v-3zM799 365h3v3h-3v-3zM806 365h3v3h-3v-3zM813 365h3v3h-3v-3zM820 365h3v3h-3v-3zM827 365h3v3h-3v-3zM834 365h3v3h-3v-3zM841 365h3v3h-3v-3zM848 365h3v3h-3v-3zM855 365h3v3h-3v-3zM771 372h3v3h-3v-3zM778 372h3v3h-3v-3zM785 372h3v3h-3v-3zM792 372h3v3h-3v-3zM799 372h3v3h-3v-3zM806 372h3v3h-3v-3zM813 372h3v3h-3v-3zM820 372h3v3h-3v-3zM827 372h3v3h-3v-3zM834 372h3v3h-3v-3zM841 372h3v3h-3v-3zM848 372h3v3h-3v-3zM855 372h3v3h-3v-3zM771 379h3v3h-3v-3zM778 379h3v3h-3v-3zM785 379h3v3h-3v-3zM792 379h3v3h-3v-3zM799 379h3v3h-3v-3zM806 379h3v3h-3v-3zM813 379h3v3h-3v-3zM820 379h3v3h-3v-3zM827 379h3v3h-3v-3zM834 379h3v3h-3v-3zM841 379h3v3h-3v-3zM848 379h3v3h-3v-3zM855 379h3v3h-3v-3zM771 386h3v3h-3v-3zM778 386h3v3h-3v-3zM785 386h3v3h-3v-3zM792 386h3v3h-3v-3zM799 386h3v3h-3v-3zM806 386h3v3h-3v-3zM813 386h3v3h-3v-3zM820 386h3v3h-3v-3zM827 386h3v3h-3v-3zM834 386h3v3h-3v-3zM841 386h3v3h-3v-3zM848 386h3v3h-3v-3zM855 386h3v3h-3v-3zM771 393h3v3h-3v-3zM778 393h3v3h-3v-3zM785 393h3v3h-3v-3zM792 393h3v3h-3v-3zM799 393h3v3h-3v-3zM806 393h3v3h-3v-3zM813 393h3v3h-3v-3zM820 393h3v3h-3v-3zM827 393h3v3h-3v-3zM834 393h3v3h-3v-3zM841 393h3v3h-3v-3zM848 393h3v3h-3v-3zM855 393h3v3h-3v-3zM771 400h3v3h-3v-3zM778 400h3v3h-3v-3zM785 400h3v3h-3v-3zM792 400h3v3h-3v-3zM799 400h3v3h-3v-3zM806 400h3v3h-3v-3zM813 400h3v3h-3v-3zM820 400h3v3h-3v-3zM827 400h3v3h-3v-3zM834 400h3v3h-3v-3zM841 400h3v3h-3v-3zM848 400h3v3h-3v-3zM855 400h3v3h-3v-3zM771 407h3v3h-3v-3zM778 407h3v3h-3v-3zM785 407h3v3h-3v-3zM792 407h3v3h-3v-3zM799 407h3v3h-3v-3zM806 407h3v3h-3v-3zM813 407h3v3h-3v-3zM820 407h3v3h-3v-3zM827 407h3v3h-3v-3zM834 407h3v3h-3v-3zM841 407h3v3h-3v-3zM848 407h3v3h-3v-3zM855 407h3v3h-3v-3zM771 414h3v3h-3v-3zM778 414h3v3h-3v-3zM785 414h3v3h-3v-3zM792 414h3v3h-3v-3zM799 414h3v3h-3v-3zM806 414h3v3h-3v-3zM813 414h3v3h-3v-3zM820 414h3v3h-3v-3zM827 414h3v3h-3v-3zM834 414h3v3h-3v-3zM841 414h3v3h-3v-3zM848 414h3v3h-3v-3zM855 414h3v3h-3v-3zM771 421h3v3h-3v-3zM778 421h3v3h-3v-3zM785 421h3v3h-3v-3zM792 421h3v3h-3v-3zM799 421h3v3h-3v-3zM806 421h3v3h-3v-3zM813 421h3v3h-3v-3zM820 421h3v3h-3v-3zM827 421h3v3h-3v-3zM834 421h3v3h-3v-3zM841 421h3v3h-3v-3zM848 421h3v3h-3v-3zM855 421h3v3h-3v-3zM771 428h3v3h-3v-3zM778 428h3v3h-3v-3zM785 428h3v3h-3v-3zM792 428h3v3h-3v-3zM799 428h3v3h-3v-3zM806 428h3v3h-3v-3zM813 428h3v3h-3v-3zM820 428h3v3h-3v-3zM827 428h3v3h-3v-3zM834 428h3v3h-3v-3zM841 428h3v3h-3v-3zM848 428h3v3h-3v-3zM855 428h3v3h-3v-3zM771 271h3v3h-3v-3zM778 271h3v3h-3v-3zM785 271h3v3h-3v-3zM792 271h3v3h-3v-3zM799 271h3v3h-3v-3zM806 271h3v3h-3v-3zM813 271h3v3h-3v-3zM820 271h3v3h-3v-3zM827 271h3v3h-3v-3zM834 271h3v3h-3v-3zM841 271h3v3h-3v-3zM848 271h3v3h-3v-3zM855 271h3v3h-3v-3zM771 278h3v3h-3v-3zM778 278h3v3h-3v-3zM785 278h3v3h-3v-3zM792 278h3v3h-3v-3zM799 278h3v3h-3v-3zM806 278h3v3h-3v-3zM813 278h3v3h-3v-3zM820 278h3v3h-3v-3zM827 278h3v3h-3v-3zM834 278h3v3h-3v-3zM841 278h3v3h-3v-3zM848 278h3v3h-3v-3zM855 278h3v3h-3v-3zM771 285h3v3h-3v-3zM778 285h3v3h-3v-3zM785 285h3v3h-3v-3zM792 285h3v3h-3v-3zM799 285h3v3h-3v-3zM806 285h3v3h-3v-3zM813 285h3v3h-3v-3zM820 285h3v3h-3v-3zM827 285h3v3h-3v-3zM834 285h3v3h-3v-3zM841 285h3v3h-3v-3zM848 285h3v3h-3v-3zM855 285h3v3h-3v-3zM771 292h3v3h-3v-3zM778 292h3v3h-3v-3zM785 292h3v3h-3v-3zM792 292h3v3h-3v-3zM799 292h3v3h-3v-3zM806 292h3v3h-3v-3zM813 292h3v3h-3v-3zM820 292h3v3h-3v-3zM827 292h3v3h-3v-3zM834 292h3v3h-3v-3zM841 292h3v3h-3v-3zM848 292h3v3h-3v-3zM855 292h3v3h-3v-3zM771 299h3v3h-3v-3zM778 299h3v3h-3v-3zM785 299h3v3h-3v-3zM792 299h3v3h-3v-3zM799 299h3v3h-3v-3zM806 299h3v3h-3v-3zM813 299h3v3h-3v-3zM820 299h3v3h-3v-3zM827 299h3v3h-3v-3zM834 299h3v3h-3v-3zM841 299h3v3h-3v-3zM848 299h3v3h-3v-3zM855 299h3v3h-3v-3zM771 306h3v3h-3v-3zM778 306h3v3h-3v-3zM785 306h3v3h-3v-3zM792 306h3v3h-3v-3zM799 306h3v3h-3v-3zM806 306h3v3h-3v-3zM813 306h3v3h-3v-3zM820 306h3v3h-3v-3zM827 306h3v3h-3v-3zM834 306h3v3h-3v-3zM841 306h3v3h-3v-3zM848 306h3v3h-3v-3zM855 306h3v3h-3v-3zM771 313h3v3h-3v-3zM778 313h3v3h-3v-3zM785 313h3v3h-3v-3zM792 313h3v3h-3v-3zM799 313h3v3h-3v-3zM806 313h3v3h-3v-3zM813 313h3v3h-3v-3zM820 313h3v3h-3v-3zM827 313h3v3h-3v-3zM834 313h3v3h-3v-3zM841 313h3v3h-3v-3zM848 313h3v3h-3v-3zM855 313h3v3h-3v-3zM771 320h3v3h-3v-3zM778 320h3v3h-3v-3zM785 320h3v3h-3v-3zM792 320h3v3h-3v-3zM799 320h3v3h-3v-3zM806 320h3v3h-3v-3zM813 320h3v3h-3v-3zM820 320h3v3h-3v-3zM827 320h3v3h-3v-3zM834 320h3v3h-3v-3zM841 320h3v3h-3v-3zM848 320h3v3h-3v-3zM855 320h3v3h-3v-3zM771 327h3v3h-3v-3zM778 327h3v3h-3v-3zM785 327h3v3h-3v-3zM792 327h3v3h-3v-3zM799 327h3v3h-3v-3zM806 327h3v3h-3v-3zM813 327h3v3h-3v-3zM820 327h3v3h-3v-3zM827 327h3v3h-3v-3zM834 327h3v3h-3v-3zM841 327h3v3h-3v-3zM848 327h3v3h-3v-3zM855 327h3v3h-3v-3zM771 344h3v3h-3v-3zM778 344h3v3h-3v-3zM785 344h3v3h-3v-3zM792 344h3v3h-3v-3zM799 344h3v3h-3v-3zM806 344h3v3h-3v-3zM813 344h3v3h-3v-3zM820 344h3v3h-3v-3zM827 344h3v3h-3v-3zM834 344h3v3h-3v-3zM841 344h3v3h-3v-3zM848 344h3v3h-3v-3zM855 344h3v3h-3v-3zM771 351h3v3h-3v-3zM778 351h3v3h-3v-3zM785 351h3v3h-3v-3zM792 351h3v3h-3v-3zM799 351h3v3h-3v-3zM806 351h3v3h-3v-3zM813 351h3v3h-3v-3zM820 351h3v3h-3v-3zM827 351h3v3h-3v-3zM834 351h3v3h-3v-3zM841 351h3v3h-3v-3zM848 351h3v3h-3v-3zM855 351h3v3h-3v-3zM577 443h3v3h-3v-3zM584 443h3v3h-3v-3zM591 443h3v3h-3v-3zM598 443h3v3h-3v-3zM605 443h3v3h-3v-3zM612 443h3v3h-3v-3zM619 443h3v3h-3v-3zM626 443h3v3h-3v-3zM577 415h3v3h-3v-3zM584 415h3v3h-3v-3zM591 415h3v3h-3v-3zM598 415h3v3h-3v-3zM605 415h3v3h-3v-3zM612 415h3v3h-3v-3zM619 415h3v3h-3v-3zM626 415h3v3h-3v-3zM577 422h3v3h-3v-3zM584 422h3v3h-3v-3zM591 422h3v3h-3v-3zM598 422h3v3h-3v-3zM605 422h3v3h-3v-3zM612 422h3v3h-3v-3zM619 422h3v3h-3v-3zM626 422h3v3h-3v-3zM577 429h3v3h-3v-3zM584 429h3v3h-3v-3zM591 429h3v3h-3v-3zM598 429h3v3h-3v-3zM605 429h3v3h-3v-3zM612 429h3v3h-3v-3zM619 429h3v3h-3v-3zM626 429h3v3h-3v-3zM577 436h3v3h-3v-3zM584 436h3v3h-3v-3zM591 436h3v3h-3v-3zM598 436h3v3h-3v-3zM605 436h3v3h-3v-3zM612 436h3v3h-3v-3zM619 436h3v3h-3v-3zM626 436h3v3h-3v-3zM348 183h3v3h-3v-3zM355 183h3v3h-3v-3zM362 183h3v3h-3v-3zM369 183h3v3h-3v-3zM376 183h3v3h-3v-3zM383 183h3v3h-3v-3zM390 183h3v3h-3v-3zM397 183h3v3h-3v-3zM404 183h3v3h-3v-3zM411 183h3v3h-3v-3zM418 183h3v3h-3v-3zM425 183h3v3h-3v-3zM432 183h3v3h-3v-3zM348 190h3v3h-3v-3zM355 190h3v3h-3v-3zM362 190h3v3h-3v-3zM369 190h3v3h-3v-3zM376 190h3v3h-3v-3zM383 190h3v3h-3v-3zM390 190h3v3h-3v-3zM397 190h3v3h-3v-3zM404 190h3v3h-3v-3zM411 190h3v3h-3v-3zM418 190h3v3h-3v-3zM425 190h3v3h-3v-3zM432 190h3v3h-3v-3zM348 197h3v3h-3v-3zM355 197h3v3h-3v-3zM362 197h3v3h-3v-3zM369 197h3v3h-3v-3zM376 197h3v3h-3v-3zM383 197h3v3h-3v-3zM390 197h3v3h-3v-3zM397 197h3v3h-3v-3zM404 197h3v3h-3v-3zM411 197h3v3h-3v-3zM418 197h3v3h-3v-3zM425 197h3v3h-3v-3zM432 197h3v3h-3v-3zM348 204h3v3h-3v-3zM355 204h3v3h-3v-3zM362 204h3v3h-3v-3zM369 204h3v3h-3v-3zM376 204h3v3h-3v-3zM383 204h3v3h-3v-3zM390 204h3v3h-3v-3zM397 204h3v3h-3v-3zM404 204h3v3h-3v-3zM411 204h3v3h-3v-3zM418 204h3v3h-3v-3zM425 204h3v3h-3v-3zM432 204h3v3h-3v-3zM348 211h3v3h-3v-3zM355 211h3v3h-3v-3zM362 211h3v3h-3v-3zM369 211h3v3h-3v-3zM376 211h3v3h-3v-3zM383 211h3v3h-3v-3zM390 211h3v3h-3v-3zM397 211h3v3h-3v-3zM404 211h3v3h-3v-3zM411 211h3v3h-3v-3zM418 211h3v3h-3v-3zM425 211h3v3h-3v-3zM432 211h3v3h-3v-3zM348 218h3v3h-3v-3zM355 218h3v3h-3v-3zM362 218h3v3h-3v-3zM369 218h3v3h-3v-3zM376 218h3v3h-3v-3zM383 218h3v3h-3v-3zM390 218h3v3h-3v-3zM397 218h3v3h-3v-3zM404 218h3v3h-3v-3zM411 218h3v3h-3v-3zM418 218h3v3h-3v-3zM425 218h3v3h-3v-3zM432 218h3v3h-3v-3zM348 225h3v3h-3v-3zM355 225h3v3h-3v-3zM362 225h3v3h-3v-3zM369 225h3v3h-3v-3zM376 225h3v3h-3v-3zM383 225h3v3h-3v-3zM390 225h3v3h-3v-3zM397 225h3v3h-3v-3zM404 225h3v3h-3v-3zM411 225h3v3h-3v-3zM418 225h3v3h-3v-3zM425 225h3v3h-3v-3zM432 225h3v3h-3v-3zM348 232h3v3h-3v-3zM355 232h3v3h-3v-3zM362 232h3v3h-3v-3zM369 232h3v3h-3v-3zM376 232h3v3h-3v-3zM383 232h3v3h-3v-3zM390 232h3v3h-3v-3zM397 232h3v3h-3v-3zM404 232h3v3h-3v-3zM411 232h3v3h-3v-3zM418 232h3v3h-3v-3zM425 232h3v3h-3v-3zM432 232h3v3h-3v-3zM348 239h3v3h-3v-3zM355 239h3v3h-3v-3zM362 239h3v3h-3v-3zM369 239h3v3h-3v-3zM376 239h3v3h-3v-3zM383 239h3v3h-3v-3zM390 239h3v3h-3v-3zM397 239h3v3h-3v-3zM404 239h3v3h-3v-3zM411 239h3v3h-3v-3zM418 239h3v3h-3v-3zM425 239h3v3h-3v-3zM432 239h3v3h-3v-3zM348 296h3v3h-3v-3zM355 296h3v3h-3v-3zM362 296h3v3h-3v-3zM369 296h3v3h-3v-3zM376 296h3v3h-3v-3zM383 296h3v3h-3v-3zM390 296h3v3h-3v-3zM397 296h3v3h-3v-3zM404 296h3v3h-3v-3zM411 296h3v3h-3v-3zM418 296h3v3h-3v-3zM425 296h3v3h-3v-3zM432 296h3v3h-3v-3zM348 303h3v3h-3v-3zM355 303h3v3h-3v-3zM362 303h3v3h-3v-3zM369 303h3v3h-3v-3zM376 303h3v3h-3v-3zM383 303h3v3h-3v-3zM390 303h3v3h-3v-3zM397 303h3v3h-3v-3zM404 303h3v3h-3v-3zM411 303h3v3h-3v-3zM418 303h3v3h-3v-3zM425 303h3v3h-3v-3zM432 303h3v3h-3v-3zM348 86h3v3h-3v-3zM355 86h3v3h-3v-3zM362 86h3v3h-3v-3zM369 86h3v3h-3v-3zM376 86h3v3h-3v-3zM383 86h3v3h-3v-3zM390 86h3v3h-3v-3zM397 86h3v3h-3v-3zM404 86h3v3h-3v-3zM411 86h3v3h-3v-3zM418 86h3v3h-3v-3zM425 86h3v3h-3v-3zM432 86h3v3h-3v-3zM348 93h3v3h-3v-3zM355 93h3v3h-3v-3zM362 93h3v3h-3v-3zM369 93h3v3h-3v-3zM376 93h3v3h-3v-3zM383 93h3v3h-3v-3zM390 93h3v3h-3v-3zM397 93h3v3h-3v-3zM404 93h3v3h-3v-3zM411 93h3v3h-3v-3zM418 93h3v3h-3v-3zM425 93h3v3h-3v-3zM432 93h3v3h-3v-3zM348 100h3v3h-3v-3zM355 100h3v3h-3v-3zM362 100h3v3h-3v-3zM369 100h3v3h-3v-3zM376 100h3v3h-3v-3zM383 100h3v3h-3v-3zM390 100h3v3h-3v-3zM397 100h3v3h-3v-3zM404 100h3v3h-3v-3zM411 100h3v3h-3v-3zM418 100h3v3h-3v-3zM425 100h3v3h-3v-3zM432 100h3v3h-3v-3zM348 107h3v3h-3v-3zM355 107h3v3h-3v-3zM362 107h3v3h-3v-3zM369 107h3v3h-3v-3zM376 107h3v3h-3v-3zM383 107h3v3h-3v-3zM390 107h3v3h-3v-3zM397 107h3v3h-3v-3zM404 107h3v3h-3v-3zM411 107h3v3h-3v-3zM418 107h3v3h-3v-3zM425 107h3v3h-3v-3zM432 107h3v3h-3v-3zM348 114h3v3h-3v-3zM355 114h3v3h-3v-3zM362 114h3v3h-3v-3zM369 114h3v3h-3v-3zM376 114h3v3h-3v-3zM383 114h3v3h-3v-3zM390 114h3v3h-3v-3zM397 114h3v3h-3v-3zM404 114h3v3h-3v-3zM411 114h3v3h-3v-3zM418 114h3v3h-3v-3zM425 114h3v3h-3v-3zM432 114h3v3h-3v-3zM348 121h3v3h-3v-3zM355 121h3v3h-3v-3zM362 121h3v3h-3v-3zM369 121h3v3h-3v-3zM376 121h3v3h-3v-3zM383 121h3v3h-3v-3zM390 121h3v3h-3v-3zM397 121h3v3h-3v-3zM404 121h3v3h-3v-3zM411 121h3v3h-3v-3zM418 121h3v3h-3v-3zM425 121h3v3h-3v-3zM432 121h3v3h-3v-3zM348 128h3v3h-3v-3zM355 128h3v3h-3v-3zM362 128h3v3h-3v-3zM369 128h3v3h-3v-3zM376 128h3v3h-3v-3zM383 128h3v3h-3v-3zM390 128h3v3h-3v-3zM397 128h3v3h-3v-3zM404 128h3v3h-3v-3zM411 128h3v3h-3v-3zM418 128h3v3h-3v-3zM425 128h3v3h-3v-3zM432 128h3v3h-3v-3zM348 135h3v3h-3v-3zM355 135h3v3h-3v-3zM362 135h3v3h-3v-3zM369 135h3v3h-3v-3zM376 135h3v3h-3v-3zM383 135h3v3h-3v-3zM390 135h3v3h-3v-3zM397 135h3v3h-3v-3zM404 135h3v3h-3v-3zM411 135h3v3h-3v-3zM418 135h3v3h-3v-3zM425 135h3v3h-3v-3zM432 135h3v3h-3v-3zM348 142h3v3h-3v-3zM355 142h3v3h-3v-3zM362 142h3v3h-3v-3zM369 142h3v3h-3v-3zM376 142h3v3h-3v-3zM383 142h3v3h-3v-3zM390 142h3v3h-3v-3zM397 142h3v3h-3v-3zM404 142h3v3h-3v-3zM411 142h3v3h-3v-3zM418 142h3v3h-3v-3zM425 142h3v3h-3v-3zM432 142h3v3h-3v-3zM348 169h3v3h-3v-3zM355 169h3v3h-3v-3zM362 169h3v3h-3v-3zM369 169h3v3h-3v-3zM376 169h3v3h-3v-3zM383 169h3v3h-3v-3zM390 169h3v3h-3v-3zM397 169h3v3h-3v-3zM404 169h3v3h-3v-3zM411 169h3v3h-3v-3zM418 169h3v3h-3v-3zM425 169h3v3h-3v-3zM432 169h3v3h-3v-3zM348 176h3v3h-3v-3zM355 176h3v3h-3v-3zM362 176h3v3h-3v-3zM369 176h3v3h-3v-3zM376 176h3v3h-3v-3zM383 176h3v3h-3v-3zM390 176h3v3h-3v-3zM397 176h3v3h-3v-3zM404 176h3v3h-3v-3zM411 176h3v3h-3v-3zM418 176h3v3h-3v-3zM425 176h3v3h-3v-3zM432 176h3v3h-3v-3zM348 9h3v3h-3V9zM355 9h3v3h-3V9zM362 9h3v3h-3V9zM369 9h3v3h-3V9zM376 9h3v3h-3V9zM383 9h3v3h-3V9zM390 9h3v3h-3V9zM397 9h3v3h-3V9zM404 9h3v3h-3V9zM411 9h3v3h-3V9zM418 9h3v3h-3V9zM425 9h3v3h-3V9zM432 9h3v3h-3V9zM348 16h3v3h-3v-3zM355 16h3v3h-3v-3zM362 16h3v3h-3v-3zM369 16h3v3h-3v-3zM376 16h3v3h-3v-3zM383 16h3v3h-3v-3zM390 16h3v3h-3v-3zM397 16h3v3h-3v-3zM404 16h3v3h-3v-3zM411 16h3v3h-3v-3zM418 16h3v3h-3v-3zM425 16h3v3h-3v-3zM432 16h3v3h-3v-3zM348 23h3v3h-3v-3zM355 23h3v3h-3v-3zM362 23h3v3h-3v-3zM369 23h3v3h-3v-3zM376 23h3v3h-3v-3zM383 23h3v3h-3v-3zM390 23h3v3h-3v-3zM397 23h3v3h-3v-3zM404 23h3v3h-3v-3zM411 23h3v3h-3v-3zM418 23h3v3h-3v-3zM425 23h3v3h-3v-3zM432 23h3v3h-3v-3zM348 30h3v3h-3v-3zM355 30h3v3h-3v-3zM362 30h3v3h-3v-3zM369 30h3v3h-3v-3zM376 30h3v3h-3v-3zM383 30h3v3h-3v-3zM390 30h3v3h-3v-3zM397 30h3v3h-3v-3zM404 30h3v3h-3v-3zM411 30h3v3h-3v-3zM418 30h3v3h-3v-3zM425 30h3v3h-3v-3zM432 30h3v3h-3v-3zM348 37h3v3h-3v-3zM355 37h3v3h-3v-3zM362 37h3v3h-3v-3zM369 37h3v3h-3v-3zM376 37h3v3h-3v-3zM383 37h3v3h-3v-3zM390 37h3v3h-3v-3zM397 37h3v3h-3v-3zM404 37h3v3h-3v-3zM411 37h3v3h-3v-3zM418 37h3v3h-3v-3zM425 37h3v3h-3v-3zM432 37h3v3h-3v-3zM348 44h3v3h-3v-3zM355 44h3v3h-3v-3zM362 44h3v3h-3v-3zM369 44h3v3h-3v-3zM376 44h3v3h-3v-3zM383 44h3v3h-3v-3zM390 44h3v3h-3v-3zM397 44h3v3h-3v-3zM404 44h3v3h-3v-3zM411 44h3v3h-3v-3zM418 44h3v3h-3v-3zM425 44h3v3h-3v-3zM432 44h3v3h-3v-3zM348 51h3v3h-3v-3zM355 51h3v3h-3v-3zM362 51h3v3h-3v-3zM369 51h3v3h-3v-3zM376 51h3v3h-3v-3zM383 51h3v3h-3v-3zM390 51h3v3h-3v-3zM397 51h3v3h-3v-3zM404 51h3v3h-3v-3zM411 51h3v3h-3v-3zM418 51h3v3h-3v-3zM425 51h3v3h-3v-3zM432 51h3v3h-3v-3zM348 58h3v3h-3v-3zM355 58h3v3h-3v-3zM362 58h3v3h-3v-3zM369 58h3v3h-3v-3zM376 58h3v3h-3v-3zM383 58h3v3h-3v-3zM390 58h3v3h-3v-3zM397 58h3v3h-3v-3zM404 58h3v3h-3v-3zM411 58h3v3h-3v-3zM418 58h3v3h-3v-3zM425 58h3v3h-3v-3zM432 58h3v3h-3v-3zM348 65h3v3h-3v-3zM355 65h3v3h-3v-3zM362 65h3v3h-3v-3zM369 65h3v3h-3v-3zM376 65h3v3h-3v-3zM383 65h3v3h-3v-3zM390 65h3v3h-3v-3zM397 65h3v3h-3v-3zM404 65h3v3h-3v-3zM411 65h3v3h-3v-3zM418 65h3v3h-3v-3zM425 65h3v3h-3v-3zM432 65h3v3h-3v-3zM348 72h3v3h-3v-3zM355 72h3v3h-3v-3zM362 72h3v3h-3v-3zM369 72h3v3h-3v-3zM376 72h3v3h-3v-3zM383 72h3v3h-3v-3zM390 72h3v3h-3v-3zM397 72h3v3h-3v-3zM404 72h3v3h-3v-3zM411 72h3v3h-3v-3zM418 72h3v3h-3v-3zM425 72h3v3h-3v-3zM432 72h3v3h-3v-3zM348 79h3v3h-3v-3zM355 79h3v3h-3v-3zM362 79h3v3h-3v-3zM369 79h3v3h-3v-3zM376 79h3v3h-3v-3zM383 79h3v3h-3v-3zM390 79h3v3h-3v-3zM397 79h3v3h-3v-3zM404 79h3v3h-3v-3zM411 79h3v3h-3v-3zM418 79h3v3h-3v-3zM425 79h3v3h-3v-3zM432 79h3v3h-3v-3zM896 141h1v1h-1v-1zM900 141h1v1h-1v-1zM904 141h1v1h-1v-1zM908 141h1v1h-1v-1zM912 141h1v1h-1v-1zM916 141h1v1h-1v-1zM920 141h1v1h-1v-1zM896 145h1v1h-1v-1zM900 145h1v1h-1v-1zM904 145h1v1h-1v-1zM908 145h1v1h-1v-1zM912 145h1v1h-1v-1zM916 145h1v1h-1v-1zM920 145h1v1h-1v-1zM896 149h1v1h-1v-1zM900 149h1v1h-1v-1zM904 149h1v1h-1v-1zM908 149h1v1h-1v-1zM912 149h1v1h-1v-1zM916 149h1v1h-1v-1zM920 149h1v1h-1v-1zM896 153h1v1h-1v-1zM900 153h1v1h-1v-1zM904 153h1v1h-1v-1zM908 153h1v1h-1v-1zM912 153h1v1h-1v-1zM916 153h1v1h-1v-1zM920 153h1v1h-1v-1zM896 157h1v1h-1v-1zM900 157h1v1h-1v-1zM904 157h1v1h-1v-1zM908 157h1v1h-1v-1zM912 157h1v1h-1v-1zM916 157h1v1h-1v-1zM920 157h1v1h-1v-1zM896 161h1v1h-1v-1zM900 161h1v1h-1v-1zM904 161h1v1h-1v-1zM908 161h1v1h-1v-1zM912 161h1v1h-1v-1zM916 161h1v1h-1v-1zM920 161h1v1h-1v-1zM896 165h1v1h-1v-1zM900 165h1v1h-1v-1zM904 165h1v1h-1v-1zM908 165h1v1h-1v-1zM912 165h1v1h-1v-1zM916 165h1v1h-1v-1zM920 165h1v1h-1v-1zM896 169h1v1h-1v-1zM900 169h1v1h-1v-1zM904 169h1v1h-1v-1zM908 169h1v1h-1v-1zM912 169h1v1h-1v-1zM916 169h1v1h-1v-1zM920 169h1v1h-1v-1zM896 173h1v1h-1v-1zM900 173h1v1h-1v-1zM904 173h1v1h-1v-1zM908 173h1v1h-1v-1zM912 173h1v1h-1v-1zM916 173h1v1h-1v-1zM920 173h1v1h-1v-1zM896 177h1v1h-1v-1zM900 177h1v1h-1v-1zM904 177h1v1h-1v-1zM908 177h1v1h-1v-1zM912 177h1v1h-1v-1zM916 177h1v1h-1v-1zM920 177h1v1h-1v-1zM896 181h1v1h-1v-1zM900 181h1v1h-1v-1zM904 181h1v1h-1v-1zM908 181h1v1h-1v-1zM912 181h1v1h-1v-1zM916 181h1v1h-1v-1zM920 181h1v1h-1v-1zM896 185h1v1h-1v-1zM900 185h1v1h-1v-1zM904 185h1v1h-1v-1zM908 185h1v1h-1v-1zM912 185h1v1h-1v-1zM916 185h1v1h-1v-1zM920 185h1v1h-1v-1zM896 189h1v1h-1v-1zM900 189h1v1h-1v-1zM904 189h1v1h-1v-1zM908 189h1v1h-1v-1zM912 189h1v1h-1v-1zM916 189h1v1h-1v-1zM920 189h1v1h-1v-1zM896 193h1v1h-1v-1zM900 193h1v1h-1v-1zM904 193h1v1h-1v-1zM908 193h1v1h-1v-1zM912 193h1v1h-1v-1zM916 193h1v1h-1v-1zM920 193h1v1h-1v-1zM896 197h1v1h-1v-1zM900 197h1v1h-1v-1zM904 197h1v1h-1v-1zM908 197h1v1h-1v-1zM912 197h1v1h-1v-1zM916 197h1v1h-1v-1zM920 197h1v1h-1v-1zM896 201h1v1h-1v-1zM900 201h1v1h-1v-1zM904 201h1v1h-1v-1zM908 201h1v1h-1v-1zM912 201h1v1h-1v-1zM916 201h1v1h-1v-1zM920 201h1v1h-1v-1zM896 205h1v1h-1v-1zM900 205h1v1h-1v-1zM904 205h1v1h-1v-1zM908 205h1v1h-1v-1zM912 205h1v1h-1v-1zM916 205h1v1h-1v-1zM920 205h1v1h-1v-1zM896 209h1v1h-1v-1zM900 209h1v1h-1v-1zM904 209h1v1h-1v-1zM908 209h1v1h-1v-1zM912 209h1v1h-1v-1zM916 209h1v1h-1v-1zM920 209h1v1h-1v-1zM896 213h1v1h-1v-1zM900 213h1v1h-1v-1zM904 213h1v1h-1v-1zM908 213h1v1h-1v-1zM912 213h1v1h-1v-1zM916 213h1v1h-1v-1zM920 213h1v1h-1v-1zM896 217h1v1h-1v-1zM900 217h1v1h-1v-1zM904 217h1v1h-1v-1zM908 217h1v1h-1v-1zM912 217h1v1h-1v-1zM916 217h1v1h-1v-1zM920 217h1v1h-1v-1zM896 221h1v1h-1v-1zM900 221h1v1h-1v-1zM904 221h1v1h-1v-1zM908 221h1v1h-1v-1zM912 221h1v1h-1v-1zM916 221h1v1h-1v-1zM920 221h1v1h-1v-1zM896 225h1v1h-1v-1zM900 225h1v1h-1v-1zM904 225h1v1h-1v-1zM908 225h1v1h-1v-1zM912 225h1v1h-1v-1zM916 225h1v1h-1v-1zM920 225h1v1h-1v-1zM896 229h1v1h-1v-1zM900 229h1v1h-1v-1zM904 229h1v1h-1v-1zM908 229h1v1h-1v-1zM912 229h1v1h-1v-1zM916 229h1v1h-1v-1zM920 229h1v1h-1v-1zM896 233h1v1h-1v-1zM900 233h1v1h-1v-1zM904 233h1v1h-1v-1zM908 233h1v1h-1v-1zM912 233h1v1h-1v-1zM916 233h1v1h-1v-1zM920 233h1v1h-1v-1zM896 237h1v1h-1v-1zM900 237h1v1h-1v-1zM904 237h1v1h-1v-1zM908 237h1v1h-1v-1zM912 237h1v1h-1v-1zM916 237h1v1h-1v-1zM920 237h1v1h-1v-1zM896 241h1v1h-1v-1zM900 241h1v1h-1v-1zM904 241h1v1h-1v-1zM908 241h1v1h-1v-1zM912 241h1v1h-1v-1zM916 241h1v1h-1v-1zM920 241h1v1h-1v-1zM896 245h1v1h-1v-1zM900 245h1v1h-1v-1zM904 245h1v1h-1v-1zM908 245h1v1h-1v-1zM912 245h1v1h-1v-1zM916 245h1v1h-1v-1zM920 245h1v1h-1v-1zM896 249h1v1h-1v-1zM900 249h1v1h-1v-1zM904 249h1v1h-1v-1zM908 249h1v1h-1v-1zM912 249h1v1h-1v-1zM916 249h1v1h-1v-1zM920 249h1v1h-1v-1zM896 253h1v1h-1v-1zM900 253h1v1h-1v-1zM904 253h1v1h-1v-1zM908 253h1v1h-1v-1zM912 253h1v1h-1v-1zM916 253h1v1h-1v-1zM920 253h1v1h-1v-1zM896 257h1v1h-1v-1zM900 257h1v1h-1v-1zM904 257h1v1h-1v-1zM908 257h1v1h-1v-1zM912 257h1v1h-1v-1zM916 257h1v1h-1v-1zM920 257h1v1h-1v-1zM896 261h1v1h-1v-1zM900 261h1v1h-1v-1zM904 261h1v1h-1v-1zM908 261h1v1h-1v-1zM912 261h1v1h-1v-1zM916 261h1v1h-1v-1zM920 261h1v1h-1v-1zM896 265h1v1h-1v-1zM900 265h1v1h-1v-1zM904 265h1v1h-1v-1zM908 265h1v1h-1v-1zM912 265h1v1h-1v-1zM916 265h1v1h-1v-1zM920 265h1v1h-1v-1zM896 269h1v1h-1v-1zM900 269h1v1h-1v-1zM904 269h1v1h-1v-1zM908 269h1v1h-1v-1zM912 269h1v1h-1v-1zM916 269h1v1h-1v-1zM920 269h1v1h-1v-1zM896 273h1v1h-1v-1zM900 273h1v1h-1v-1zM904 273h1v1h-1v-1zM908 273h1v1h-1v-1zM912 273h1v1h-1v-1zM916 273h1v1h-1v-1zM920 273h1v1h-1v-1zM896 277h1v1h-1v-1zM900 277h1v1h-1v-1zM904 277h1v1h-1v-1zM908 277h1v1h-1v-1zM912 277h1v1h-1v-1zM916 277h1v1h-1v-1zM920 277h1v1h-1v-1zM896 281h1v1h-1v-1zM900 281h1v1h-1v-1zM904 281h1v1h-1v-1zM908 281h1v1h-1v-1zM912 281h1v1h-1v-1zM916 281h1v1h-1v-1zM920 281h1v1h-1v-1zM236 23h1v1h-1v-1zM240 23h1v1h-1v-1zM244 23h1v1h-1v-1zM248 23h1v1h-1v-1zM252 23h1v1h-1v-1zM256 23h1v1h-1v-1zM260 23h1v1h-1v-1zM236 27h1v1h-1v-1zM240 27h1v1h-1v-1zM244 27h1v1h-1v-1zM248 27h1v1h-1v-1zM252 27h1v1h-1v-1zM256 27h1v1h-1v-1zM260 27h1v1h-1v-1zM236 31h1v1h-1v-1zM240 31h1v1h-1v-1zM244 31h1v1h-1v-1zM248 31h1v1h-1v-1zM252 31h1v1h-1v-1zM256 31h1v1h-1v-1zM260 31h1v1h-1v-1zM236 35h1v1h-1v-1zM240 35h1v1h-1v-1zM244 35h1v1h-1v-1zM248 35h1v1h-1v-1zM252 35h1v1h-1v-1zM256 35h1v1h-1v-1zM260 35h1v1h-1v-1zM236 39h1v1h-1v-1zM240 39h1v1h-1v-1zM244 39h1v1h-1v-1zM248 39h1v1h-1v-1zM252 39h1v1h-1v-1zM256 39h1v1h-1v-1zM260 39h1v1h-1v-1zM236 43h1v1h-1v-1zM240 43h1v1h-1v-1zM244 43h1v1h-1v-1zM248 43h1v1h-1v-1zM252 43h1v1h-1v-1zM256 43h1v1h-1v-1zM260 43h1v1h-1v-1zM236 47h1v1h-1v-1zM240 47h1v1h-1v-1zM244 47h1v1h-1v-1zM248 47h1v1h-1v-1zM252 47h1v1h-1v-1zM256 47h1v1h-1v-1zM260 47h1v1h-1v-1zM236 51h1v1h-1v-1zM240 51h1v1h-1v-1zM244 51h1v1h-1v-1zM248 51h1v1h-1v-1zM252 51h1v1h-1v-1zM256 51h1v1h-1v-1zM260 51h1v1h-1v-1zM236 55h1v1h-1v-1zM240 55h1v1h-1v-1zM244 55h1v1h-1v-1zM248 55h1v1h-1v-1zM252 55h1v1h-1v-1zM256 55h1v1h-1v-1zM260 55h1v1h-1v-1zM236 59h1v1h-1v-1zM240 59h1v1h-1v-1zM244 59h1v1h-1v-1zM248 59h1v1h-1v-1zM252 59h1v1h-1v-1zM256 59h1v1h-1v-1zM260 59h1v1h-1v-1zM236 63h1v1h-1v-1zM240 63h1v1h-1v-1zM244 63h1v1h-1v-1zM248 63h1v1h-1v-1zM252 63h1v1h-1v-1zM256 63h1v1h-1v-1zM260 63h1v1h-1v-1zM236 67h1v1h-1v-1zM240 67h1v1h-1v-1zM244 67h1v1h-1v-1zM248 67h1v1h-1v-1zM252 67h1v1h-1v-1zM256 67h1v1h-1v-1zM260 67h1v1h-1v-1zM236 71h1v1h-1v-1zM240 71h1v1h-1v-1zM244 71h1v1h-1v-1zM248 71h1v1h-1v-1zM252 71h1v1h-1v-1zM256 71h1v1h-1v-1zM260 71h1v1h-1v-1zM236 75h1v1h-1v-1zM240 75h1v1h-1v-1zM244 75h1v1h-1v-1zM248 75h1v1h-1v-1zM252 75h1v1h-1v-1zM256 75h1v1h-1v-1zM260 75h1v1h-1v-1zM236 79h1v1h-1v-1zM240 79h1v1h-1v-1zM244 79h1v1h-1v-1zM248 79h1v1h-1v-1zM252 79h1v1h-1v-1zM256 79h1v1h-1v-1zM260 79h1v1h-1v-1zM236 83h1v1h-1v-1zM240 83h1v1h-1v-1zM244 83h1v1h-1v-1zM248 83h1v1h-1v-1zM252 83h1v1h-1v-1zM256 83h1v1h-1v-1zM260 83h1v1h-1v-1zM236 87h1v1h-1v-1zM240 87h1v1h-1v-1zM244 87h1v1h-1v-1zM248 87h1v1h-1v-1zM252 87h1v1h-1v-1zM256 87h1v1h-1v-1zM260 87h1v1h-1v-1zM236 91h1v1h-1v-1zM240 91h1v1h-1v-1zM244 91h1v1h-1v-1zM248 91h1v1h-1v-1zM252 91h1v1h-1v-1zM256 91h1v1h-1v-1zM260 91h1v1h-1v-1zM236 95h1v1h-1v-1zM240 95h1v1h-1v-1zM244 95h1v1h-1v-1zM248 95h1v1h-1v-1zM252 95h1v1h-1v-1zM256 95h1v1h-1v-1zM260 95h1v1h-1v-1zM236 99h1v1h-1v-1zM240 99h1v1h-1v-1zM244 99h1v1h-1v-1zM248 99h1v1h-1v-1zM252 99h1v1h-1v-1zM256 99h1v1h-1v-1zM260 99h1v1h-1v-1zM236 103h1v1h-1v-1zM240 103h1v1h-1v-1zM244 103h1v1h-1v-1zM248 103h1v1h-1v-1zM252 103h1v1h-1v-1zM256 103h1v1h-1v-1zM260 103h1v1h-1v-1zM236 107h1v1h-1v-1zM240 107h1v1h-1v-1zM244 107h1v1h-1v-1zM248 107h1v1h-1v-1zM252 107h1v1h-1v-1zM256 107h1v1h-1v-1zM260 107h1v1h-1v-1zM236 111h1v1h-1v-1zM240 111h1v1h-1v-1zM244 111h1v1h-1v-1zM248 111h1v1h-1v-1zM252 111h1v1h-1v-1zM256 111h1v1h-1v-1zM260 111h1v1h-1v-1zM236 115h1v1h-1v-1zM240 115h1v1h-1v-1zM244 115h1v1h-1v-1zM248 115h1v1h-1v-1zM252 115h1v1h-1v-1zM256 115h1v1h-1v-1zM260 115h1v1h-1v-1zM236 119h1v1h-1v-1zM240 119h1v1h-1v-1zM244 119h1v1h-1v-1zM248 119h1v1h-1v-1zM252 119h1v1h-1v-1zM256 119h1v1h-1v-1zM260 119h1v1h-1v-1zM236 123h1v1h-1v-1zM240 123h1v1h-1v-1zM244 123h1v1h-1v-1zM248 123h1v1h-1v-1zM252 123h1v1h-1v-1zM256 123h1v1h-1v-1zM260 123h1v1h-1v-1zM236 127h1v1h-1v-1zM240 127h1v1h-1v-1zM244 127h1v1h-1v-1zM248 127h1v1h-1v-1zM252 127h1v1h-1v-1zM256 127h1v1h-1v-1zM260 127h1v1h-1v-1zM236 131h1v1h-1v-1zM240 131h1v1h-1v-1zM244 131h1v1h-1v-1zM248 131h1v1h-1v-1zM252 131h1v1h-1v-1zM256 131h1v1h-1v-1zM260 131h1v1h-1v-1zM236 135h1v1h-1v-1zM240 135h1v1h-1v-1zM244 135h1v1h-1v-1zM248 135h1v1h-1v-1zM252 135h1v1h-1v-1zM256 135h1v1h-1v-1zM260 135h1v1h-1v-1zM236 139h1v1h-1v-1zM240 139h1v1h-1v-1zM244 139h1v1h-1v-1zM248 139h1v1h-1v-1zM252 139h1v1h-1v-1zM256 139h1v1h-1v-1zM260 139h1v1h-1v-1zM236 143h1v1h-1v-1zM240 143h1v1h-1v-1zM244 143h1v1h-1v-1zM248 143h1v1h-1v-1zM252 143h1v1h-1v-1zM256 143h1v1h-1v-1zM260 143h1v1h-1v-1zM236 147h1v1h-1v-1zM240 147h1v1h-1v-1zM244 147h1v1h-1v-1zM248 147h1v1h-1v-1zM252 147h1v1h-1v-1zM256 147h1v1h-1v-1zM260 147h1v1h-1v-1zM236 151h1v1h-1v-1zM240 151h1v1h-1v-1zM244 151h1v1h-1v-1zM248 151h1v1h-1v-1zM252 151h1v1h-1v-1zM256 151h1v1h-1v-1zM260 151h1v1h-1v-1zM236 155h1v1h-1v-1zM240 155h1v1h-1v-1zM244 155h1v1h-1v-1zM248 155h1v1h-1v-1zM252 155h1v1h-1v-1zM256 155h1v1h-1v-1zM260 155h1v1h-1v-1zM236 159h1v1h-1v-1zM240 159h1v1h-1v-1zM244 159h1v1h-1v-1zM248 159h1v1h-1v-1zM252 159h1v1h-1v-1zM256 159h1v1h-1v-1zM260 159h1v1h-1v-1zM236 163h1v1h-1v-1zM240 163h1v1h-1v-1zM244 163h1v1h-1v-1zM248 163h1v1h-1v-1zM252 163h1v1h-1v-1zM256 163h1v1h-1v-1zM260 163h1v1h-1v-1zM208 23h1v1h-1v-1zM212 23h1v1h-1v-1zM216 23h1v1h-1v-1zM220 23h1v1h-1v-1zM224 23h1v1h-1v-1zM228 23h1v1h-1v-1zM232 23h1v1h-1v-1zM208 27h1v1h-1v-1zM212 27h1v1h-1v-1zM216 27h1v1h-1v-1zM220 27h1v1h-1v-1zM224 27h1v1h-1v-1zM228 27h1v1h-1v-1zM232 27h1v1h-1v-1zM208 31h1v1h-1v-1zM212 31h1v1h-1v-1zM216 31h1v1h-1v-1zM220 31h1v1h-1v-1zM224 31h1v1h-1v-1zM228 31h1v1h-1v-1zM232 31h1v1h-1v-1zM208 35h1v1h-1v-1zM212 35h1v1h-1v-1zM216 35h1v1h-1v-1zM220 35h1v1h-1v-1zM224 35h1v1h-1v-1zM228 35h1v1h-1v-1zM232 35h1v1h-1v-1zM208 39h1v1h-1v-1zM212 39h1v1h-1v-1zM216 39h1v1h-1v-1zM220 39h1v1h-1v-1zM224 39h1v1h-1v-1zM228 39h1v1h-1v-1zM232 39h1v1h-1v-1zM208 43h1v1h-1v-1zM212 43h1v1h-1v-1zM216 43h1v1h-1v-1zM220 43h1v1h-1v-1zM224 43h1v1h-1v-1zM228 43h1v1h-1v-1zM232 43h1v1h-1v-1zM208 47h1v1h-1v-1zM212 47h1v1h-1v-1zM216 47h1v1h-1v-1zM220 47h1v1h-1v-1zM224 47h1v1h-1v-1zM228 47h1v1h-1v-1zM232 47h1v1h-1v-1zM208 51h1v1h-1v-1zM212 51h1v1h-1v-1zM216 51h1v1h-1v-1zM220 51h1v1h-1v-1zM224 51h1v1h-1v-1zM228 51h1v1h-1v-1zM232 51h1v1h-1v-1zM208 55h1v1h-1v-1zM212 55h1v1h-1v-1zM216 55h1v1h-1v-1zM220 55h1v1h-1v-1zM224 55h1v1h-1v-1zM228 55h1v1h-1v-1zM232 55h1v1h-1v-1zM208 59h1v1h-1v-1zM212 59h1v1h-1v-1zM216 59h1v1h-1v-1zM220 59h1v1h-1v-1zM224 59h1v1h-1v-1zM228 59h1v1h-1v-1zM232 59h1v1h-1v-1zM208 63h1v1h-1v-1zM212 63h1v1h-1v-1zM216 63h1v1h-1v-1zM220 63h1v1h-1v-1zM224 63h1v1h-1v-1zM228 63h1v1h-1v-1zM232 63h1v1h-1v-1zM208 67h1v1h-1v-1zM212 67h1v1h-1v-1zM216 67h1v1h-1v-1zM220 67h1v1h-1v-1zM224 67h1v1h-1v-1zM228 67h1v1h-1v-1zM232 67h1v1h-1v-1zM208 71h1v1h-1v-1zM212 71h1v1h-1v-1zM216 71h1v1h-1v-1zM220 71h1v1h-1v-1zM224 71h1v1h-1v-1zM228 71h1v1h-1v-1zM232 71h1v1h-1v-1zM208 75h1v1h-1v-1zM212 75h1v1h-1v-1zM216 75h1v1h-1v-1zM220 75h1v1h-1v-1zM224 75h1v1h-1v-1zM228 75h1v1h-1v-1zM232 75h1v1h-1v-1zM208 79h1v1h-1v-1zM212 79h1v1h-1v-1zM216 79h1v1h-1v-1zM220 79h1v1h-1v-1zM224 79h1v1h-1v-1zM228 79h1v1h-1v-1zM232 79h1v1h-1v-1zM208 83h1v1h-1v-1zM212 83h1v1h-1v-1zM216 83h1v1h-1v-1zM220 83h1v1h-1v-1zM224 83h1v1h-1v-1zM228 83h1v1h-1v-1zM232 83h1v1h-1v-1zM208 87h1v1h-1v-1zM212 87h1v1h-1v-1zM216 87h1v1h-1v-1zM220 87h1v1h-1v-1zM224 87h1v1h-1v-1zM228 87h1v1h-1v-1zM232 87h1v1h-1v-1zM208 91h1v1h-1v-1zM212 91h1v1h-1v-1zM216 91h1v1h-1v-1zM220 91h1v1h-1v-1zM224 91h1v1h-1v-1zM228 91h1v1h-1v-1zM232 91h1v1h-1v-1zM208 95h1v1h-1v-1zM212 95h1v1h-1v-1zM216 95h1v1h-1v-1zM220 95h1v1h-1v-1zM224 95h1v1h-1v-1zM228 95h1v1h-1v-1zM232 95h1v1h-1v-1zM208 99h1v1h-1v-1zM212 99h1v1h-1v-1zM216 99h1v1h-1v-1zM220 99h1v1h-1v-1zM224 99h1v1h-1v-1zM228 99h1v1h-1v-1zM232 99h1v1h-1v-1zM208 103h1v1h-1v-1zM212 103h1v1h-1v-1zM216 103h1v1h-1v-1zM220 103h1v1h-1v-1zM224 103h1v1h-1v-1zM228 103h1v1h-1v-1zM232 103h1v1h-1v-1zM208 107h1v1h-1v-1zM212 107h1v1h-1v-1zM216 107h1v1h-1v-1zM220 107h1v1h-1v-1zM224 107h1v1h-1v-1zM228 107h1v1h-1v-1zM232 107h1v1h-1v-1zM208 111h1v1h-1v-1zM212 111h1v1h-1v-1zM216 111h1v1h-1v-1zM220 111h1v1h-1v-1zM224 111h1v1h-1v-1zM228 111h1v1h-1v-1zM232 111h1v1h-1v-1zM208 115h1v1h-1v-1zM212 115h1v1h-1v-1zM216 115h1v1h-1v-1zM220 115h1v1h-1v-1zM224 115h1v1h-1v-1zM228 115h1v1h-1v-1zM232 115h1v1h-1v-1zM208 119h1v1h-1v-1zM212 119h1v1h-1v-1zM216 119h1v1h-1v-1zM220 119h1v1h-1v-1zM224 119h1v1h-1v-1zM228 119h1v1h-1v-1zM232 119h1v1h-1v-1zM208 123h1v1h-1v-1zM212 123h1v1h-1v-1zM216 123h1v1h-1v-1zM220 123h1v1h-1v-1zM224 123h1v1h-1v-1zM228 123h1v1h-1v-1zM232 123h1v1h-1v-1zM208 127h1v1h-1v-1zM212 127h1v1h-1v-1zM216 127h1v1h-1v-1zM220 127h1v1h-1v-1zM224 127h1v1h-1v-1zM228 127h1v1h-1v-1zM232 127h1v1h-1v-1zM208 131h1v1h-1v-1zM212 131h1v1h-1v-1zM216 131h1v1h-1v-1zM220 131h1v1h-1v-1zM224 131h1v1h-1v-1zM228 131h1v1h-1v-1zM232 131h1v1h-1v-1zM208 135h1v1h-1v-1zM212 135h1v1h-1v-1zM216 135h1v1h-1v-1zM220 135h1v1h-1v-1zM224 135h1v1h-1v-1zM228 135h1v1h-1v-1zM232 135h1v1h-1v-1zM208 139h1v1h-1v-1zM212 139h1v1h-1v-1zM216 139h1v1h-1v-1zM220 139h1v1h-1v-1zM224 139h1v1h-1v-1zM228 139h1v1h-1v-1zM232 139h1v1h-1v-1zM208 143h1v1h-1v-1zM212 143h1v1h-1v-1zM216 143h1v1h-1v-1zM220 143h1v1h-1v-1zM224 143h1v1h-1v-1zM228 143h1v1h-1v-1zM232 143h1v1h-1v-1zM208 147h1v1h-1v-1zM212 147h1v1h-1v-1zM216 147h1v1h-1v-1zM220 147h1v1h-1v-1zM224 147h1v1h-1v-1zM228 147h1v1h-1v-1zM232 147h1v1h-1v-1zM208 151h1v1h-1v-1zM212 151h1v1h-1v-1zM216 151h1v1h-1v-1zM220 151h1v1h-1v-1zM224 151h1v1h-1v-1zM228 151h1v1h-1v-1zM232 151h1v1h-1v-1zM208 155h1v1h-1v-1zM212 155h1v1h-1v-1zM216 155h1v1h-1v-1zM220 155h1v1h-1v-1zM224 155h1v1h-1v-1zM228 155h1v1h-1v-1zM232 155h1v1h-1v-1zM208 159h1v1h-1v-1zM212 159h1v1h-1v-1zM216 159h1v1h-1v-1zM220 159h1v1h-1v-1zM224 159h1v1h-1v-1zM228 159h1v1h-1v-1zM232 159h1v1h-1v-1zM208 163h1v1h-1v-1zM212 163h1v1h-1v-1zM216 163h1v1h-1v-1zM220 163h1v1h-1v-1zM224 163h1v1h-1v-1zM228 163h1v1h-1v-1zM232 163h1v1h-1v-1zM935 89h1v1h-1v-1zM939 89h1v1h-1v-1zM943 89h1v1h-1v-1zM935 93h1v1h-1v-1zM939 93h1v1h-1v-1zM943 93h1v1h-1v-1zM935 97h1v1h-1v-1zM939 97h1v1h-1v-1zM943 97h1v1h-1v-1zM935 101h1v1h-1v-1zM939 101h1v1h-1v-1zM943 101h1v1h-1v-1zM935 105h1v1h-1v-1zM939 105h1v1h-1v-1zM943 105h1v1h-1v-1zM935 109h1v1h-1v-1zM939 109h1v1h-1v-1zM943 109h1v1h-1v-1zM935 113h1v1h-1v-1zM939 113h1v1h-1v-1zM943 113h1v1h-1v-1zM935 117h1v1h-1v-1zM939 117h1v1h-1v-1zM943 117h1v1h-1v-1zM935 121h1v1h-1v-1zM939 121h1v1h-1v-1zM943 121h1v1h-1v-1zM935 125h1v1h-1v-1zM939 125h1v1h-1v-1zM943 125h1v1h-1v-1zM935 129h1v1h-1v-1zM939 129h1v1h-1v-1zM943 129h1v1h-1v-1zM935 133h1v1h-1v-1zM939 133h1v1h-1v-1zM943 133h1v1h-1v-1zM935 137h1v1h-1v-1zM939 137h1v1h-1v-1zM943 137h1v1h-1v-1zM935 141h1v1h-1v-1zM939 141h1v1h-1v-1zM943 141h1v1h-1v-1zM935 145h1v1h-1v-1zM939 145h1v1h-1v-1zM943 145h1v1h-1v-1zM935 149h1v1h-1v-1zM939 149h1v1h-1v-1zM943 149h1v1h-1v-1zM935 153h1v1h-1v-1zM939 153h1v1h-1v-1zM943 153h1v1h-1v-1zM935 157h1v1h-1v-1zM939 157h1v1h-1v-1zM943 157h1v1h-1v-1zM935 161h1v1h-1v-1zM939 161h1v1h-1v-1zM943 161h1v1h-1v-1zM935 165h1v1h-1v-1zM939 165h1v1h-1v-1zM943 165h1v1h-1v-1zM935 169h1v1h-1v-1zM939 169h1v1h-1v-1zM943 169h1v1h-1v-1zM935 173h1v1h-1v-1zM939 173h1v1h-1v-1zM943 173h1v1h-1v-1zM935 177h1v1h-1v-1zM939 177h1v1h-1v-1zM943 177h1v1h-1v-1zM935 181h1v1h-1v-1zM939 181h1v1h-1v-1zM943 181h1v1h-1v-1zM935 185h1v1h-1v-1zM939 185h1v1h-1v-1zM943 185h1v1h-1v-1zM935 189h1v1h-1v-1zM939 189h1v1h-1v-1zM943 189h1v1h-1v-1zM935 193h1v1h-1v-1zM939 193h1v1h-1v-1zM943 193h1v1h-1v-1zM935 197h1v1h-1v-1zM939 197h1v1h-1v-1zM943 197h1v1h-1v-1zM935 201h1v1h-1v-1zM939 201h1v1h-1v-1zM943 201h1v1h-1v-1zM935 205h1v1h-1v-1zM939 205h1v1h-1v-1zM943 205h1v1h-1v-1zM935 209h1v1h-1v-1zM939 209h1v1h-1v-1zM943 209h1v1h-1v-1zM935 213h1v1h-1v-1zM939 213h1v1h-1v-1zM943 213h1v1h-1v-1zM485 304h1v1h-1v-1zM489 304h1v1h-1v-1zM493 304h1v1h-1v-1zM497 304h1v1h-1v-1zM501 304h1v1h-1v-1zM505 304h1v1h-1v-1zM509 304h1v1h-1v-1zM485 308h1v1h-1v-1zM489 308h1v1h-1v-1zM493 308h1v1h-1v-1zM497 308h1v1h-1v-1zM501 308h1v1h-1v-1zM505 308h1v1h-1v-1zM509 308h1v1h-1v-1zM485 312h1v1h-1v-1zM489 312h1v1h-1v-1zM493 312h1v1h-1v-1zM497 312h1v1h-1v-1zM501 312h1v1h-1v-1zM505 312h1v1h-1v-1zM509 312h1v1h-1v-1zM485 316h1v1h-1v-1zM489 316h1v1h-1v-1zM493 316h1v1h-1v-1zM497 316h1v1h-1v-1zM501 316h1v1h-1v-1zM505 316h1v1h-1v-1zM509 316h1v1h-1v-1zM485 320h1v1h-1v-1zM489 320h1v1h-1v-1zM493 320h1v1h-1v-1zM497 320h1v1h-1v-1zM501 320h1v1h-1v-1zM505 320h1v1h-1v-1zM509 320h1v1h-1v-1zM485 324h1v1h-1v-1zM489 324h1v1h-1v-1zM493 324h1v1h-1v-1zM497 324h1v1h-1v-1zM501 324h1v1h-1v-1zM505 324h1v1h-1v-1zM509 324h1v1h-1v-1zM485 328h1v1h-1v-1zM489 328h1v1h-1v-1zM493 328h1v1h-1v-1zM497 328h1v1h-1v-1zM501 328h1v1h-1v-1zM505 328h1v1h-1v-1zM509 328h1v1h-1v-1zM485 332h1v1h-1v-1zM489 332h1v1h-1v-1zM493 332h1v1h-1v-1zM497 332h1v1h-1v-1zM501 332h1v1h-1v-1zM505 332h1v1h-1v-1zM509 332h1v1h-1v-1zM485 336h1v1h-1v-1zM489 336h1v1h-1v-1zM493 336h1v1h-1v-1zM497 336h1v1h-1v-1zM501 336h1v1h-1v-1zM505 336h1v1h-1v-1zM509 336h1v1h-1v-1zM485 340h1v1h-1v-1zM489 340h1v1h-1v-1zM493 340h1v1h-1v-1zM497 340h1v1h-1v-1zM501 340h1v1h-1v-1zM505 340h1v1h-1v-1zM509 340h1v1h-1v-1zM485 344h1v1h-1v-1zM489 344h1v1h-1v-1zM493 344h1v1h-1v-1zM497 344h1v1h-1v-1zM501 344h1v1h-1v-1zM505 344h1v1h-1v-1zM509 344h1v1h-1v-1zM485 348h1v1h-1v-1zM489 348h1v1h-1v-1zM493 348h1v1h-1v-1zM497 348h1v1h-1v-1zM501 348h1v1h-1v-1zM505 348h1v1h-1v-1zM509 348h1v1h-1v-1zM485 352h1v1h-1v-1zM489 352h1v1h-1v-1zM493 352h1v1h-1v-1zM497 352h1v1h-1v-1zM501 352h1v1h-1v-1zM505 352h1v1h-1v-1zM509 352h1v1h-1v-1zM485 356h1v1h-1v-1zM489 356h1v1h-1v-1zM493 356h1v1h-1v-1zM497 356h1v1h-1v-1zM501 356h1v1h-1v-1zM505 356h1v1h-1v-1zM509 356h1v1h-1v-1zM485 360h1v1h-1v-1zM489 360h1v1h-1v-1zM493 360h1v1h-1v-1zM497 360h1v1h-1v-1zM501 360h1v1h-1v-1zM505 360h1v1h-1v-1zM509 360h1v1h-1v-1zM485 364h1v1h-1v-1zM489 364h1v1h-1v-1zM493 364h1v1h-1v-1zM497 364h1v1h-1v-1zM501 364h1v1h-1v-1zM505 364h1v1h-1v-1zM509 364h1v1h-1v-1zM485 368h1v1h-1v-1zM489 368h1v1h-1v-1zM493 368h1v1h-1v-1zM497 368h1v1h-1v-1zM501 368h1v1h-1v-1zM505 368h1v1h-1v-1zM509 368h1v1h-1v-1zM485 372h1v1h-1v-1zM489 372h1v1h-1v-1zM493 372h1v1h-1v-1zM497 372h1v1h-1v-1zM501 372h1v1h-1v-1zM505 372h1v1h-1v-1zM509 372h1v1h-1v-1zM485 376h1v1h-1v-1zM489 376h1v1h-1v-1zM493 376h1v1h-1v-1zM497 376h1v1h-1v-1zM501 376h1v1h-1v-1zM505 376h1v1h-1v-1zM509 376h1v1h-1v-1zM485 380h1v1h-1v-1zM489 380h1v1h-1v-1zM493 380h1v1h-1v-1zM497 380h1v1h-1v-1zM501 380h1v1h-1v-1zM505 380h1v1h-1v-1zM509 380h1v1h-1v-1zM485 384h1v1h-1v-1zM489 384h1v1h-1v-1zM493 384h1v1h-1v-1zM497 384h1v1h-1v-1zM501 384h1v1h-1v-1zM505 384h1v1h-1v-1zM509 384h1v1h-1v-1zM485 388h1v1h-1v-1zM489 388h1v1h-1v-1zM493 388h1v1h-1v-1zM497 388h1v1h-1v-1zM501 388h1v1h-1v-1zM505 388h1v1h-1v-1zM509 388h1v1h-1v-1zM623 95h1v1h-1v-1zM627 95h1v1h-1v-1zM631 95h1v1h-1v-1zM635 95h1v1h-1v-1zM639 95h1v1h-1v-1zM643 95h1v1h-1v-1zM647 95h1v1h-1v-1zM623 99h1v1h-1v-1zM627 99h1v1h-1v-1zM631 99h1v1h-1v-1zM635 99h1v1h-1v-1zM639 99h1v1h-1v-1zM643 99h1v1h-1v-1zM647 99h1v1h-1v-1zM623 103h1v1h-1v-1zM627 103h1v1h-1v-1zM631 103h1v1h-1v-1zM635 103h1v1h-1v-1zM639 103h1v1h-1v-1zM643 103h1v1h-1v-1zM647 103h1v1h-1v-1zM623 107h1v1h-1v-1zM627 107h1v1h-1v-1zM631 107h1v1h-1v-1zM635 107h1v1h-1v-1zM639 107h1v1h-1v-1zM643 107h1v1h-1v-1zM647 107h1v1h-1v-1zM623 111h1v1h-1v-1zM627 111h1v1h-1v-1zM631 111h1v1h-1v-1zM635 111h1v1h-1v-1zM639 111h1v1h-1v-1zM643 111h1v1h-1v-1zM647 111h1v1h-1v-1zM623 115h1v1h-1v-1zM627 115h1v1h-1v-1zM631 115h1v1h-1v-1zM635 115h1v1h-1v-1zM639 115h1v1h-1v-1zM643 115h1v1h-1v-1zM647 115h1v1h-1v-1zM623 119h1v1h-1v-1zM627 119h1v1h-1v-1zM631 119h1v1h-1v-1zM635 119h1v1h-1v-1zM639 119h1v1h-1v-1zM643 119h1v1h-1v-1zM647 119h1v1h-1v-1zM623 123h1v1h-1v-1zM627 123h1v1h-1v-1zM631 123h1v1h-1v-1zM635 123h1v1h-1v-1zM639 123h1v1h-1v-1zM643 123h1v1h-1v-1zM647 123h1v1h-1v-1zM623 127h1v1h-1v-1zM627 127h1v1h-1v-1zM631 127h1v1h-1v-1zM635 127h1v1h-1v-1zM639 127h1v1h-1v-1zM643 127h1v1h-1v-1zM647 127h1v1h-1v-1zM623 131h1v1h-1v-1zM627 131h1v1h-1v-1zM631 131h1v1h-1v-1zM635 131h1v1h-1v-1zM639 131h1v1h-1v-1zM643 131h1v1h-1v-1zM647 131h1v1h-1v-1zM623 135h1v1h-1v-1zM627 135h1v1h-1v-1zM631 135h1v1h-1v-1zM635 135h1v1h-1v-1zM639 135h1v1h-1v-1zM643 135h1v1h-1v-1zM647 135h1v1h-1v-1zM623 139h1v1h-1v-1zM627 139h1v1h-1v-1zM631 139h1v1h-1v-1zM635 139h1v1h-1v-1zM639 139h1v1h-1v-1zM643 139h1v1h-1v-1zM647 139h1v1h-1v-1zM623 143h1v1h-1v-1zM627 143h1v1h-1v-1zM631 143h1v1h-1v-1zM635 143h1v1h-1v-1zM639 143h1v1h-1v-1zM643 143h1v1h-1v-1zM647 143h1v1h-1v-1zM623 147h1v1h-1v-1zM627 147h1v1h-1v-1zM631 147h1v1h-1v-1zM635 147h1v1h-1v-1zM639 147h1v1h-1v-1zM643 147h1v1h-1v-1zM647 147h1v1h-1v-1zM623 151h1v1h-1v-1zM627 151h1v1h-1v-1zM631 151h1v1h-1v-1zM635 151h1v1h-1v-1zM639 151h1v1h-1v-1zM643 151h1v1h-1v-1zM647 151h1v1h-1v-1zM623 155h1v1h-1v-1zM627 155h1v1h-1v-1zM631 155h1v1h-1v-1zM635 155h1v1h-1v-1zM639 155h1v1h-1v-1zM643 155h1v1h-1v-1zM647 155h1v1h-1v-1zM623 159h1v1h-1v-1zM627 159h1v1h-1v-1zM631 159h1v1h-1v-1zM635 159h1v1h-1v-1zM639 159h1v1h-1v-1zM643 159h1v1h-1v-1zM647 159h1v1h-1v-1zM623 163h1v1h-1v-1zM627 163h1v1h-1v-1zM631 163h1v1h-1v-1zM635 163h1v1h-1v-1zM639 163h1v1h-1v-1zM643 163h1v1h-1v-1zM647 163h1v1h-1v-1zM623 167h1v1h-1v-1zM627 167h1v1h-1v-1zM631 167h1v1h-1v-1zM635 167h1v1h-1v-1zM639 167h1v1h-1v-1zM643 167h1v1h-1v-1zM647 167h1v1h-1v-1zM623 171h1v1h-1v-1zM627 171h1v1h-1v-1zM631 171h1v1h-1v-1zM635 171h1v1h-1v-1zM639 171h1v1h-1v-1zM643 171h1v1h-1v-1zM647 171h1v1h-1v-1zM623 175h1v1h-1v-1zM627 175h1v1h-1v-1zM631 175h1v1h-1v-1zM635 175h1v1h-1v-1zM639 175h1v1h-1v-1zM643 175h1v1h-1v-1zM647 175h1v1h-1v-1zM623 179h1v1h-1v-1zM627 179h1v1h-1v-1zM631 179h1v1h-1v-1zM635 179h1v1h-1v-1zM639 179h1v1h-1v-1zM643 179h1v1h-1v-1zM647 179h1v1h-1v-1zM63 372h1v1h-1v-1zM67 372h1v1h-1v-1zM71 372h1v1h-1v-1zM75 372h1v1h-1v-1zM79 372h1v1h-1v-1zM83 372h1v1h-1v-1zM87 372h1v1h-1v-1zM63 376h1v1h-1v-1zM67 376h1v1h-1v-1zM71 376h1v1h-1v-1zM75 376h1v1h-1v-1zM79 376h1v1h-1v-1zM83 376h1v1h-1v-1zM87 376h1v1h-1v-1zM63 380h1v1h-1v-1zM67 380h1v1h-1v-1zM71 380h1v1h-1v-1zM75 380h1v1h-1v-1zM79 380h1v1h-1v-1zM83 380h1v1h-1v-1zM87 380h1v1h-1v-1zM63 384h1v1h-1v-1zM67 384h1v1h-1v-1zM71 384h1v1h-1v-1zM75 384h1v1h-1v-1zM79 384h1v1h-1v-1zM83 384h1v1h-1v-1zM87 384h1v1h-1v-1zM63 388h1v1h-1v-1zM67 388h1v1h-1v-1zM71 388h1v1h-1v-1zM75 388h1v1h-1v-1zM79 388h1v1h-1v-1zM83 388h1v1h-1v-1zM87 388h1v1h-1v-1zM63 392h1v1h-1v-1zM67 392h1v1h-1v-1zM71 392h1v1h-1v-1zM75 392h1v1h-1v-1zM79 392h1v1h-1v-1zM83 392h1v1h-1v-1zM87 392h1v1h-1v-1zM63 396h1v1h-1v-1zM67 396h1v1h-1v-1zM71 396h1v1h-1v-1zM75 396h1v1h-1v-1zM79 396h1v1h-1v-1zM83 396h1v1h-1v-1zM87 396h1v1h-1v-1zM63 400h1v1h-1v-1zM67 400h1v1h-1v-1zM71 400h1v1h-1v-1zM75 400h1v1h-1v-1zM79 400h1v1h-1v-1zM83 400h1v1h-1v-1zM87 400h1v1h-1v-1zM63 404h1v1h-1v-1zM67 404h1v1h-1v-1zM71 404h1v1h-1v-1zM75 404h1v1h-1v-1zM79 404h1v1h-1v-1zM83 404h1v1h-1v-1zM87 404h1v1h-1v-1zM63 408h1v1h-1v-1zM67 408h1v1h-1v-1zM71 408h1v1h-1v-1zM75 408h1v1h-1v-1zM79 408h1v1h-1v-1zM83 408h1v1h-1v-1zM87 408h1v1h-1v-1zM63 412h1v1h-1v-1zM67 412h1v1h-1v-1zM71 412h1v1h-1v-1zM75 412h1v1h-1v-1zM79 412h1v1h-1v-1zM83 412h1v1h-1v-1zM87 412h1v1h-1v-1zM63 416h1v1h-1v-1zM67 416h1v1h-1v-1zM71 416h1v1h-1v-1zM75 416h1v1h-1v-1zM79 416h1v1h-1v-1zM83 416h1v1h-1v-1zM87 416h1v1h-1v-1zM63 420h1v1h-1v-1zM67 420h1v1h-1v-1zM71 420h1v1h-1v-1zM75 420h1v1h-1v-1zM79 420h1v1h-1v-1zM83 420h1v1h-1v-1zM87 420h1v1h-1v-1zM63 424h1v1h-1v-1zM67 424h1v1h-1v-1zM71 424h1v1h-1v-1zM75 424h1v1h-1v-1zM79 424h1v1h-1v-1zM83 424h1v1h-1v-1zM87 424h1v1h-1v-1zM63 428h1v1h-1v-1zM67 428h1v1h-1v-1zM71 428h1v1h-1v-1zM75 428h1v1h-1v-1zM79 428h1v1h-1v-1zM83 428h1v1h-1v-1zM87 428h1v1h-1v-1zM63 432h1v1h-1v-1zM67 432h1v1h-1v-1zM71 432h1v1h-1v-1zM75 432h1v1h-1v-1zM79 432h1v1h-1v-1zM83 432h1v1h-1v-1zM87 432h1v1h-1v-1zM63 436h1v1h-1v-1zM67 436h1v1h-1v-1zM71 436h1v1h-1v-1zM75 436h1v1h-1v-1zM79 436h1v1h-1v-1zM83 436h1v1h-1v-1zM87 436h1v1h-1v-1zM63 440h1v1h-1v-1zM67 440h1v1h-1v-1zM71 440h1v1h-1v-1zM75 440h1v1h-1v-1zM79 440h1v1h-1v-1zM83 440h1v1h-1v-1zM87 440h1v1h-1v-1zM63 444h1v1h-1v-1zM67 444h1v1h-1v-1zM71 444h1v1h-1v-1zM75 444h1v1h-1v-1zM79 444h1v1h-1v-1zM83 444h1v1h-1v-1zM87 444h1v1h-1v-1zM63 448h1v1h-1v-1zM67 448h1v1h-1v-1zM71 448h1v1h-1v-1zM75 448h1v1h-1v-1zM79 448h1v1h-1v-1zM83 448h1v1h-1v-1zM87 448h1v1h-1v-1zM63 452h1v1h-1v-1zM67 452h1v1h-1v-1zM71 452h1v1h-1v-1zM75 452h1v1h-1v-1zM79 452h1v1h-1v-1zM83 452h1v1h-1v-1zM87 452h1v1h-1v-1zM63 456h1v1h-1v-1zM67 456h1v1h-1v-1zM71 456h1v1h-1v-1zM75 456h1v1h-1v-1zM79 456h1v1h-1v-1zM83 456h1v1h-1v-1zM87 456h1v1h-1v-1zM1214 114h1v1h-1v-1zM1218 114h1v1h-1v-1zM1222 114h1v1h-1v-1zM1226 114h1v1h-1v-1zM1230 114h1v1h-1v-1zM1234 114h1v1h-1v-1zM1238 114h1v1h-1v-1zM1214 118h1v1h-1v-1zM1218 118h1v1h-1v-1zM1222 118h1v1h-1v-1zM1226 118h1v1h-1v-1zM1230 118h1v1h-1v-1zM1234 118h1v1h-1v-1zM1238 118h1v1h-1v-1zM1214 122h1v1h-1v-1zM1218 122h1v1h-1v-1zM1222 122h1v1h-1v-1zM1226 122h1v1h-1v-1zM1230 122h1v1h-1v-1zM1234 122h1v1h-1v-1zM1238 122h1v1h-1v-1zM1214 126h1v1h-1v-1zM1218 126h1v1h-1v-1zM1222 126h1v1h-1v-1zM1226 126h1v1h-1v-1zM1230 126h1v1h-1v-1zM1234 126h1v1h-1v-1zM1238 126h1v1h-1v-1zM1214 130h1v1h-1v-1zM1218 130h1v1h-1v-1zM1222 130h1v1h-1v-1zM1226 130h1v1h-1v-1zM1230 130h1v1h-1v-1zM1234 130h1v1h-1v-1zM1238 130h1v1h-1v-1zM1214 134h1v1h-1v-1zM1218 134h1v1h-1v-1zM1222 134h1v1h-1v-1zM1226 134h1v1h-1v-1zM1230 134h1v1h-1v-1zM1234 134h1v1h-1v-1zM1238 134h1v1h-1v-1zM1214 138h1v1h-1v-1zM1218 138h1v1h-1v-1zM1222 138h1v1h-1v-1zM1226 138h1v1h-1v-1zM1230 138h1v1h-1v-1zM1234 138h1v1h-1v-1zM1238 138h1v1h-1v-1zM1214 142h1v1h-1v-1zM1218 142h1v1h-1v-1zM1222 142h1v1h-1v-1zM1226 142h1v1h-1v-1zM1230 142h1v1h-1v-1zM1234 142h1v1h-1v-1zM1238 142h1v1h-1v-1zM1214 146h1v1h-1v-1zM1218 146h1v1h-1v-1zM1222 146h1v1h-1v-1zM1226 146h1v1h-1v-1zM1230 146h1v1h-1v-1zM1234 146h1v1h-1v-1zM1238 146h1v1h-1v-1zM1214 150h1v1h-1v-1zM1218 150h1v1h-1v-1zM1222 150h1v1h-1v-1zM1226 150h1v1h-1v-1zM1230 150h1v1h-1v-1zM1234 150h1v1h-1v-1zM1238 150h1v1h-1v-1zM1214 154h1v1h-1v-1zM1218 154h1v1h-1v-1zM1222 154h1v1h-1v-1zM1226 154h1v1h-1v-1zM1230 154h1v1h-1v-1zM1234 154h1v1h-1v-1zM1238 154h1v1h-1v-1zM1214 158h1v1h-1v-1zM1218 158h1v1h-1v-1zM1222 158h1v1h-1v-1zM1226 158h1v1h-1v-1zM1230 158h1v1h-1v-1zM1234 158h1v1h-1v-1zM1238 158h1v1h-1v-1zM1214 162h1v1h-1v-1zM1218 162h1v1h-1v-1zM1222 162h1v1h-1v-1zM1226 162h1v1h-1v-1zM1230 162h1v1h-1v-1zM1234 162h1v1h-1v-1zM1238 162h1v1h-1v-1zM1214 166h1v1h-1v-1zM1218 166h1v1h-1v-1zM1222 166h1v1h-1v-1zM1226 166h1v1h-1v-1zM1230 166h1v1h-1v-1zM1234 166h1v1h-1v-1zM1238 166h1v1h-1v-1zM1214 170h1v1h-1v-1zM1218 170h1v1h-1v-1zM1222 170h1v1h-1v-1zM1226 170h1v1h-1v-1zM1230 170h1v1h-1v-1zM1234 170h1v1h-1v-1zM1238 170h1v1h-1v-1zM1214 174h1v1h-1v-1zM1218 174h1v1h-1v-1zM1222 174h1v1h-1v-1zM1226 174h1v1h-1v-1zM1230 174h1v1h-1v-1zM1234 174h1v1h-1v-1zM1238 174h1v1h-1v-1zM1214 178h1v1h-1v-1zM1218 178h1v1h-1v-1zM1222 178h1v1h-1v-1zM1226 178h1v1h-1v-1zM1230 178h1v1h-1v-1zM1234 178h1v1h-1v-1zM1238 178h1v1h-1v-1zM1214 182h1v1h-1v-1zM1218 182h1v1h-1v-1zM1222 182h1v1h-1v-1zM1226 182h1v1h-1v-1zM1230 182h1v1h-1v-1zM1234 182h1v1h-1v-1zM1238 182h1v1h-1v-1zM1214 186h1v1h-1v-1zM1218 186h1v1h-1v-1zM1222 186h1v1h-1v-1zM1226 186h1v1h-1v-1zM1230 186h1v1h-1v-1zM1234 186h1v1h-1v-1zM1238 186h1v1h-1v-1zM1214 190h1v1h-1v-1zM1218 190h1v1h-1v-1zM1222 190h1v1h-1v-1zM1226 190h1v1h-1v-1zM1230 190h1v1h-1v-1zM1234 190h1v1h-1v-1zM1238 190h1v1h-1v-1zM1214 194h1v1h-1v-1zM1218 194h1v1h-1v-1zM1222 194h1v1h-1v-1zM1226 194h1v1h-1v-1zM1230 194h1v1h-1v-1zM1234 194h1v1h-1v-1zM1238 194h1v1h-1v-1zM1214 198h1v1h-1v-1zM1218 198h1v1h-1v-1zM1222 198h1v1h-1v-1zM1226 198h1v1h-1v-1zM1230 198h1v1h-1v-1zM1234 198h1v1h-1v-1zM1238 198h1v1h-1v-1z"/></g></svg>